<svg width="121" height="29" viewBox="0 0 121 29" fill="none" xmlns="http://www.w3.org/2000/svg">
<path d="M0.736 0.791999H17.304V4.896H5.03V12.686H16.088V16.714H5.03V28H0.736V0.791999ZM22.7104 6.074C21.8997 6.074 21.2157 5.79533 20.6584 5.238C20.1264 4.68066 19.8604 4.00933 19.8604 3.224C19.8604 2.43867 20.1264 1.76733 20.6584 1.21C21.2157 0.652665 21.8997 0.373998 22.7104 0.373998C23.4957 0.373998 24.1544 0.652665 24.6864 1.21C25.2437 1.76733 25.5224 2.43867 25.5224 3.224C25.5224 4.00933 25.2437 4.68066 24.6864 5.238C24.1544 5.79533 23.4957 6.074 22.7104 6.074ZM20.5824 28V9.38H24.8004V28H20.5824ZM33.3602 11.888H33.5882C34.1455 11.0013 34.9309 10.2667 35.9442 9.684C36.9829 9.076 38.1482 8.772 39.4402 8.772C41.7962 8.772 43.5569 9.48133 44.7222 10.9C45.8875 12.2933 46.4702 14.1553 46.4702 16.486V28H42.2522V17.056C42.2522 15.4347 41.8722 14.3073 41.1122 13.674C40.3775 13.0153 39.4022 12.686 38.1862 12.686C37.4515 12.686 36.8055 12.838 36.2482 13.142C35.6909 13.446 35.2095 13.864 34.8042 14.396C34.3989 14.9027 34.0949 15.498 33.8922 16.182C33.6895 16.8407 33.5882 17.5373 33.5882 18.272V28H29.3702V9.38H33.3602V11.888ZM51.6468 13.104H48.3788V9.38H51.6468V3.68H55.8648V9.38H60.4628V13.104H55.8648V21.388C55.8648 21.844 55.9155 22.262 56.0168 22.642C56.1181 23.022 56.2701 23.3387 56.4728 23.592C56.9035 24.0733 57.4481 24.314 58.1068 24.314C58.5121 24.314 58.8288 24.2887 59.0568 24.238C59.2848 24.162 59.5255 24.0607 59.7788 23.934L61.0708 27.658C60.5388 27.8607 59.9815 28.0127 59.3988 28.114C58.8161 28.2407 58.1575 28.304 57.4228 28.304C56.5361 28.304 55.7508 28.1647 55.0668 27.886C54.3828 27.6073 53.7875 27.2273 53.2808 26.746C52.1915 25.6567 51.6468 24.1747 51.6468 22.3V13.104ZM81.0226 23.554C80.2372 24.998 79.1226 26.2013 77.6786 27.164C76.2346 28.1267 74.4612 28.608 72.3586 28.608C70.9652 28.608 69.6732 28.3673 68.4826 27.886C67.3172 27.3793 66.3039 26.6827 65.4426 25.796C64.5812 24.9093 63.9099 23.8707 63.4286 22.68C62.9472 21.464 62.7066 20.134 62.7066 18.69C62.7066 17.3473 62.9346 16.0807 63.3906 14.89C63.8466 13.674 64.4799 12.6227 65.2906 11.736C66.1266 10.824 67.1272 10.102 68.2926 9.57C69.4579 9.038 70.7499 8.772 72.1686 8.772C73.6126 8.772 74.8919 9.01267 76.0066 9.494C77.1466 9.97533 78.1092 10.6467 78.8946 11.508C79.6799 12.3693 80.2752 13.408 80.6806 14.624C81.1112 15.84 81.3266 17.17 81.3266 18.614C81.3266 18.7407 81.3266 18.8547 81.3266 18.956C81.3012 19.0827 81.2886 19.1967 81.2886 19.298C81.2632 19.3993 81.2506 19.5007 81.2506 19.602H66.9246C67.0006 20.4887 67.2159 21.2613 67.5706 21.92C67.9252 22.5787 68.3559 23.1233 68.8626 23.554C69.3946 23.9847 69.9772 24.3013 70.6106 24.504C71.2439 24.7067 71.8646 24.808 72.4726 24.808C73.6886 24.808 74.6892 24.5167 75.4746 23.934C76.2599 23.3513 76.9059 22.6293 77.4126 21.768L81.0226 23.554ZM77.1086 16.372C77.0579 15.992 76.9312 15.574 76.7286 15.118C76.5512 14.6367 76.2599 14.206 75.8546 13.826C75.4746 13.4207 74.9679 13.0787 74.3346 12.8C73.7266 12.5213 72.9792 12.382 72.0926 12.382C70.8766 12.382 69.8252 12.7493 68.9386 13.484C68.0772 14.1933 67.4946 15.156 67.1906 16.372H77.1086ZM84.5147 0.791999H88.7327V16.562H88.8847L96.0287 9.38H101.311V9.608L94.2427 16.6L101.767 27.772V28H96.7507L91.2407 19.526L88.7327 21.996V28H84.5147V0.791999ZM103.737 0.791999H107.955V16.562H108.107L115.251 9.38H120.533V9.608L113.465 16.6L120.989 27.772V28H115.973L110.463 19.526L107.955 21.996V28H103.737V0.791999Z" fill="#172E80"/>
</svg>
