<svg width="16" height="18" viewBox="0 0 16 18" fill="none" xmlns="http://www.w3.org/2000/svg">
<path d="M14.6192 6.1362C14.5148 6.2172 12.6716 7.2558 12.6716 9.5652C12.6716 12.2364 15.017 13.1814 15.0872 13.2048C15.0764 13.2624 14.7146 14.499 13.8506 15.759C13.0802 16.8678 12.2756 17.9748 11.0516 17.9748C9.82761 17.9748 9.51261 17.2638 8.09961 17.2638C6.72261 17.2638 6.23301 17.9982 5.11341 17.9982C3.99381 17.9982 3.21261 16.9722 2.31441 15.7122C1.27401 14.2326 0.433411 11.934 0.433411 9.7524C0.433411 6.2532 2.70861 4.3974 4.94781 4.3974C6.13761 4.3974 7.12941 5.1786 7.87641 5.1786C8.58741 5.1786 9.69621 4.3506 11.0498 4.3506C11.5628 4.3506 13.406 4.3974 14.6192 6.1362V6.1362ZM10.4072 2.8692C10.967 2.205 11.363 1.2834 11.363 0.3618C11.363 0.234 11.3522 0.1044 11.3288 0C10.418 0.0342 9.33441 0.6066 8.68101 1.3644C8.16801 1.9476 7.68921 2.8692 7.68921 3.8034C7.68921 3.9438 7.71261 4.0842 7.72341 4.1292C7.78101 4.14 7.87461 4.1526 7.96821 4.1526C8.78541 4.1526 9.81321 3.6054 10.4072 2.8692Z" fill="#3A3A3A"/>
</svg>
