<svg width="17" height="18" viewBox="0 0 17 18" fill="none" xmlns="http://www.w3.org/2000/svg">
<path d="M9.52864 8.99633L0.73529 17.6247C0.268798 17.2671 -0.00334524 16.7118 3.10492e-05 16.1241V1.88361C-0.00327491 1.29592 0.268798 0.740522 0.73529 0.383057L9.52864 8.99633Z" fill="#2196F3"/>
<path d="M16.5063 8.99618C16.5064 9.67911 16.1397 10.3094 15.546 10.6468L12.7849 12.1774L9.52863 8.99618L12.7849 5.81494L15.5459 7.36051C16.1359 7.69441 16.5023 8.31832 16.5063 8.99618Z" fill="#FFC107"/>
<path d="M12.7849 12.1776L2.76101 17.7747C2.48338 17.9211 2.17452 17.9983 1.86066 17.9998C1.53246 18.006 1.20946 17.9174 0.930282 17.7447C0.863248 17.708 0.798113 17.6679 0.735229 17.6246L9.52865 8.99634L12.7849 12.1776Z" fill="#F44336"/>
<path d="M12.7849 5.81507L9.52864 8.99624L0.735291 0.382962C0.798244 0.339633 0.863308 0.299539 0.930341 0.262892C1.49052 -0.0765661 2.19005 -0.0880316 2.76107 0.232857L12.7849 5.81507Z" fill="#4CAF50"/>
</svg>
