<svg width="219" height="252" viewBox="0 0 219 252" fill="none" xmlns="http://www.w3.org/2000/svg">
<path d="M212.248 120.718L177.683 126.069C176.362 126.273 175.458 127.509 175.662 128.83L178.921 149.883C179.126 151.203 180.362 152.108 181.682 151.903L216.248 146.552C217.568 146.348 218.473 145.112 218.268 143.791L215.009 122.738C214.805 121.418 213.569 120.513 212.248 120.718Z" stroke="#263238" stroke-linecap="round" stroke-linejoin="round"/>
<path d="M176.19 132.228L215.537 126.137" stroke="#263238" stroke-linecap="round" stroke-linejoin="round"/>
<path d="M212.46 133.044L206.104 134.028L207.521 143.18L213.877 142.196L212.46 133.044Z" stroke="#263238" stroke-linecap="round" stroke-linejoin="round"/>
<path d="M208.683 135.527C210.026 133.928 212.232 134.994 211.715 139.955L213.681 140.93L213.873 142.177L207.522 143.163L207.26 141.495L209.658 140.562C209.658 140.562 207.42 137.035 208.683 135.527Z" stroke="#263238" stroke-linecap="round" stroke-linejoin="round"/>
<path d="M194.899 146.717C194.899 146.717 199.493 146.754 198.177 145.837C196.86 144.921 196.663 143.994 197.782 143.978C198.901 143.962 200.777 146.109 200.628 144.798C200.479 143.487 201.288 144.34 201.443 144.425C201.598 144.511 202.924 143.978 202.988 144.132C203.052 144.287 202.962 144.718 207.283 144.052" stroke="#263238" stroke-linecap="round" stroke-linejoin="round"/>
<path d="M179.525 136.315L198.794 133.331" stroke="#263238" stroke-linecap="round" stroke-linejoin="round"/>
<path d="M179.867 138.5L191.217 136.741" stroke="#263238" stroke-linecap="round" stroke-linejoin="round"/>
<path d="M180.463 142.352L196.295 139.901" stroke="#263238" stroke-linecap="round" stroke-linejoin="round"/>
<path d="M185.376 127.944L204.697 124.949" stroke="#263238" stroke-linecap="round" stroke-linejoin="round"/>
<path d="M1.36157 114.446L44.5611 105.819L59.6465 178.246L13.7294 188.094L1.36157 114.446Z" stroke="#263238" stroke-linecap="round" stroke-linejoin="round"/>
<path d="M11.992 177.762L57.8185 169.465" stroke="#263238" stroke-linecap="round" stroke-linejoin="round"/>
<path d="M52.3887 163.304L30.5038 167.343" stroke="#263238" stroke-linecap="round" stroke-linejoin="round"/>
<path d="M49.1439 159.671L42.7495 160.614" stroke="#263238" stroke-linecap="round" stroke-linejoin="round"/>
<path d="M50.1193 152.275L17.4545 158.403" stroke="#263238" stroke-linecap="round" stroke-linejoin="round"/>
<path d="M7.0108 148.092L51.7236 140.2" stroke="#263238" stroke-linecap="round" stroke-linejoin="round" stroke-dasharray="1 2"/>
<path d="M54.5203 175.902L27.3601 181.593" stroke="#263238" stroke-linecap="round" stroke-linejoin="round"/>
<path d="M53.71 173.61L40.9425 175.902" stroke="#263238" stroke-linecap="round" stroke-linejoin="round"/>
<path d="M46.8046 135.426L24.4082 139.864" stroke="#263238" stroke-linecap="round" stroke-linejoin="round"/>
<path d="M45.0357 130.454L37.9006 131.855" stroke="#263238" stroke-linecap="round" stroke-linejoin="round"/>
<path d="M44.6141 127.001L11.992 133.289" stroke="#263238" stroke-linecap="round" stroke-linejoin="round"/>
<path d="M41.6512 110.194L32.843 112.017" stroke="#263238" stroke-linecap="round" stroke-linejoin="round"/>
<path d="M11.9919 116.455L4.39325 117.931" stroke="#263238" stroke-linecap="round" stroke-linejoin="round"/>
<path d="M7.1593 122.119C7.31777 121.579 7.58994 121.079 7.95756 120.652C8.32518 120.226 8.77975 119.883 9.29077 119.647" stroke="#263238" stroke-linecap="round" stroke-linejoin="round"/>
<path d="M10.5372 127C9.59363 126.889 8.72144 126.442 8.07904 125.742C7.43664 125.042 7.06665 124.135 7.03625 123.185" stroke="#263238" stroke-linecap="round" stroke-linejoin="round"/>
<path d="M13.5003 126.095C12.9594 126.582 12.2862 126.897 11.566 127.001" stroke="#263238" stroke-linecap="round" stroke-linejoin="round"/>
<path d="M10.9107 119.285C11.5968 119.307 12.2654 119.507 12.8513 119.864C13.4373 120.222 13.9207 120.725 14.2544 121.325C14.5882 121.925 14.7609 122.601 14.7558 123.288C14.7506 123.974 14.5678 124.647 14.2251 125.242" stroke="#263238" stroke-linecap="round" stroke-linejoin="round"/>
<path d="M18.6795 120.286C17.9708 120.062 17.2674 119.807 16.548 119.647" stroke="#263238" stroke-linecap="round" stroke-linejoin="round"/>
<path d="M24.7227 120.798C24.1206 122.231 20.7529 120.926 19.7724 120.627" stroke="#263238" stroke-linecap="round" stroke-linejoin="round"/>
<path d="M18.9568 116.993L25.2553 118.474C25.154 118.895 25.0741 119.321 24.9942 119.742" stroke="#263238" stroke-linecap="round" stroke-linejoin="round"/>
<path d="M15.8394 118.474C16.5108 116.876 16.2443 116.343 17.9175 116.732" stroke="#263238" stroke-linecap="round" stroke-linejoin="round"/>
<path d="M92.6959 231.587L101.035 234.145L94.838 226.845C98.2353 223.068 100.18 218.207 100.327 213.129" stroke="#263238" stroke-linecap="round" stroke-linejoin="round"/>
<path d="M82.5756 234.805C85.3708 233.914 88.0086 232.588 90.3927 230.878" stroke="#263238" stroke-linecap="round" stroke-linejoin="round"/>
<path d="M50.3965 219.299C52.853 231.134 65.9295 238.424 79.6082 235.589" stroke="#263238" stroke-linecap="round" stroke-linejoin="round"/>
<path d="M52.3898 205.957C51.8648 206.954 51.4193 207.991 51.0576 209.058" stroke="#263238" stroke-linecap="round" stroke-linejoin="round"/>
<path d="M99.9261 209.026C97.4749 197.191 84.393 189.901 70.7197 192.741C64.5107 193.961 58.915 197.291 54.8829 202.168" stroke="#263238" stroke-linecap="round" stroke-linejoin="round"/>
<path d="M85.4169 204.689C81.479 200.399 76.113 203.373 73.8803 207.726C70.1929 204.529 64.1022 203.746 62.0454 209.197C58.5711 218.378 70.454 223.979 75.9532 226.003C76.5766 226.238 77.0882 226.435 77.5145 226.579C77.8608 226.286 78.2658 225.913 78.756 225.465C83.1042 221.538 92.0564 211.925 85.4169 204.689Z" stroke="#263238" stroke-linecap="round" stroke-linejoin="round"/>
<path d="M118.161 30.0197L110.11 26.668L115.572 34.5331C111.838 37.9649 109.444 42.61 108.815 47.6416" stroke="#263238" stroke-linecap="round" stroke-linejoin="round"/>
<path d="M128.531 27.776C125.664 28.3975 122.912 29.4618 120.373 30.9306" stroke="#263238" stroke-linecap="round" stroke-linejoin="round"/>
<path d="M159.08 46.3097C157.775 34.2829 145.46 25.757 131.574 27.2863" stroke="#263238" stroke-linecap="round" stroke-linejoin="round"/>
<path d="M155.814 59.3966C156.423 58.4539 156.957 57.4651 157.412 56.4391" stroke="#263238" stroke-linecap="round" stroke-linejoin="round"/>
<path d="M108.815 51.766C110.12 63.7821 122.435 72.2973 136.321 70.7893C142.618 70.1707 148.507 67.3939 152.99 62.9295" stroke="#263238" stroke-linecap="round" stroke-linejoin="round"/>
<path d="M139.787 59.1198C145.944 55.824 148.264 48.161 144.968 42.004C141.672 35.8471 134.009 33.5276 127.852 36.8234C121.695 40.1192 119.376 47.7822 122.672 53.9392C125.967 60.0962 133.63 62.4156 139.787 59.1198Z" stroke="#263238" stroke-linecap="round" stroke-linejoin="round"/>
<path d="M129.016 49.5708L132.799 53.141L139.108 42.2759" stroke="#263238" stroke-linecap="round" stroke-linejoin="round"/>
<path opacity="0.2" d="M149.627 168.411C149.627 168.411 147.73 191.366 150.475 196.935C153.219 202.503 154.594 240.55 153.363 245.335C153.363 245.335 162.198 247.563 165.693 244.397C169.189 241.232 174.566 244.28 183.422 241.2C192.278 238.12 185.889 169.759 185.889 169.759L186.161 144.89L171.555 131.877L149.627 168.411Z" fill="black" fill-opacity="0.7"/>
<path d="M161.404 179.451C161.348 179.615 161.259 179.766 161.142 179.893C159.256 181.678 151.204 183.661 144.288 185.089C138.56 186.277 133.631 187.082 133.631 187.082C133.631 187.082 129.837 155.552 129.837 152.238C129.837 148.923 123.719 95.2635 123.719 95.2635L138.384 94.6294L157.839 93.7875C157.839 93.7875 157.956 95.2209 158.153 97.7254C159.437 113.679 163.849 173.158 161.404 179.451Z" fill="#2E5CFF"/>
<path opacity="0.2" d="M161.402 179.451L144.287 182.952L137.823 184.279C136.07 182.558 134.732 182.526 134.732 182.526L134.199 177.704L133.363 169.812L125.999 100.379C127.597 99.2764 128.386 96.8625 128.386 96.8625L138.244 96.5055L155.322 95.882L158.141 97.7044C159.436 113.68 163.848 173.158 161.402 179.451Z" fill="black" fill-opacity="0.7"/>
<path d="M161.402 179.451L144.287 182.952L137.823 184.279C136.07 182.558 134.732 182.526 134.732 182.526L134.199 177.704L133.363 169.812L125.999 100.379C127.597 99.2764 128.386 96.8625 128.386 96.8625L138.244 96.5055L155.322 95.882L158.141 97.7044C159.436 113.68 163.848 173.158 161.402 179.451Z" stroke="#263238" stroke-linecap="round" stroke-linejoin="round"/>
<path d="M135.638 159.011L141.351 159L141.356 160.785L139.768 161.35L136.107 161.75L135.638 159.011Z" fill="#2E5CFF" stroke="#263238" stroke-linecap="round" stroke-linejoin="round"/>
<path d="M135.99 162.688L140.189 162.544L141.265 163.055L141.212 165.426L136.31 165.48L135.99 162.688Z" fill="#2E5CFF" stroke="#263238" stroke-linecap="round" stroke-linejoin="round"/>
<path d="M136.661 166.476L141.457 166.13L141.403 167.925L139.085 168.746L136.634 168.607L136.661 166.476Z" fill="#2E5CFF" stroke="#263238" stroke-linecap="round" stroke-linejoin="round"/>
<path d="M136.95 169.502L140.824 169.7L141.175 170.691L140.611 171.783L137.147 172.007L136.55 170.318L136.95 169.502Z" fill="#2E5CFF" stroke="#263238" stroke-linecap="round" stroke-linejoin="round"/>
<path d="M141.415 172.972L141.947 174.523C142.033 174.687 142.077 174.87 142.077 175.056C142.077 175.241 142.033 175.424 141.947 175.588C141.848 175.702 141.722 175.788 141.58 175.838C141.438 175.888 141.286 175.902 141.138 175.876C140.839 175.85 140.546 175.748 140.248 175.732C139.347 175.695 138.521 176.436 137.637 176.265C137.29 175.306 136.416 173.899 137.599 173.468C137.818 173.398 141.542 173.324 141.415 172.972Z" fill="#2E5CFF" stroke="#263238" stroke-linecap="round" stroke-linejoin="round"/>
<path d="M141.398 177.336C141.483 177.705 141.543 178.078 141.579 178.455C141.633 178.693 141.626 178.941 141.557 179.175C141.488 179.409 141.36 179.622 141.185 179.792C140.958 179.917 140.704 179.985 140.444 179.99L137.364 180.267C137.319 179.685 137.311 179.101 137.338 178.519C137.519 177.826 137.391 177.885 138.046 177.602C139.086 177.16 140.332 177.863 141.398 177.336Z" fill="#2E5CFF" stroke="#263238" stroke-linecap="round" stroke-linejoin="round"/>
<path d="M130.198 101.957C130.198 101.957 131.36 113.184 131.413 115.406" stroke="#263238" stroke-linecap="round" stroke-linejoin="round"/>
<path d="M132.702 102.08L133.245 108.266" stroke="#263238" stroke-linecap="round" stroke-linejoin="round"/>
<path d="M141.383 99.74L142.086 106.992L143.072 107.088L142.752 99.8093L141.383 99.74Z" fill="#2E5CFF" stroke="#263238" stroke-linecap="round" stroke-linejoin="round"/>
<path opacity="0.2" d="M161.402 179.451C161.347 179.615 161.258 179.766 161.141 179.894C159.255 181.679 151.203 183.661 144.286 185.089V180.293L134.221 177.714L132.702 177.325L133.384 169.823L135.99 141.154L138.265 96.5267L138.361 94.6297L157.837 93.7878C157.837 93.7878 157.954 95.2212 158.152 97.7257C159.436 113.68 163.848 173.158 161.402 179.451Z" fill="black" fill-opacity="0.7"/>
<path d="M161.404 179.451C161.348 179.615 161.259 179.766 161.142 179.893C159.256 181.678 151.204 183.661 144.288 185.089C138.56 186.277 133.631 187.082 133.631 187.082C133.631 187.082 129.837 155.552 129.837 152.238C129.837 148.923 123.719 95.2635 123.719 95.2635L138.384 94.6294L157.839 93.7875C157.839 93.7875 157.956 95.2209 158.153 97.7254C159.437 113.679 163.849 173.158 161.404 179.451Z" stroke="#263238" stroke-linecap="round" stroke-linejoin="round"/>
<path d="M171.725 251C171.847 249.875 170.078 233.745 170.046 231.992C169.961 227.196 168.602 220.903 168.602 220.903C166.705 216.054 165.229 204.88 160.167 197.713C155.104 190.546 155.11 182.116 154.268 174.96C153.426 167.803 153.634 168.421 153.847 162.069C154.001 157.298 153.789 152.522 153.213 147.783C152.792 143.563 151.95 136.14 153.213 132.682C154.476 129.224 157.779 128.419 161.398 131.883C165.016 135.346 166.492 149.547 166.492 151.3C166.492 153.053 166.492 158.531 167.76 160.641C167.76 160.641 174.927 156.975 174.927 155.963C174.927 154.95 174.714 146.004 175.769 145.524L171.554 131.883L179.547 129.042C181.052 130.392 182.351 131.954 183.405 133.678C184.307 135.106 185.062 136.622 185.659 138.202C189.032 147.149 194.451 153.389 195.57 155.963C196.689 158.537 195.57 178.977 195.57 182.777C195.57 186.576 193.119 204.091 193.183 207.038C193.231 209.17 194.67 217.099 196.103 223.179C196.636 225.523 199.871 242.511 200.366 243.859L171.725 251Z" fill="white"/>
<path opacity="0.4" d="M178.034 144.623C177.98 145.769 179.35 154.902 179.35 154.902C180.298 157.178 175.119 164.936 175.119 164.936C174 165.565 173.52 169.466 173.52 169.466C170.014 168.688 161.984 160.615 161.984 160.615C161.984 160.615 161.035 163.924 159.97 172.114C158.904 180.304 165.661 199.759 168.538 213.193C171.415 226.626 170.046 231.976 170.046 231.976C169.961 227.18 168.602 220.887 168.602 220.887C166.705 216.038 165.229 204.864 160.167 197.697C155.104 190.53 155.11 182.116 154.268 174.96C153.426 167.803 153.634 168.421 153.847 162.069C154.001 157.298 153.789 152.522 153.213 147.783C152.792 143.563 151.95 136.14 153.213 132.682C154.476 129.224 157.779 128.419 161.398 131.883C165.016 135.346 166.492 149.547 166.492 151.3C166.492 153.053 166.492 158.531 167.76 160.641C167.76 160.641 174.927 156.975 174.927 155.963C174.927 154.95 174.714 146.004 175.769 145.524L171.554 131.883L179.547 129.042C181.052 130.392 182.351 131.954 183.405 133.678C180.821 138.847 178.087 143.909 178.034 144.623Z" fill="#2E5CFF"/>
<path opacity="0.4" d="M191.473 208.45C191.824 205.253 192.874 197.655 193.54 192.912C192.725 196.615 191.409 198.491 191.409 198.491C191.409 198.491 193.679 171.315 193.903 169.658C194.126 168 196.418 160.551 195.576 155.936C196.695 158.505 195.576 178.951 195.576 182.75C195.576 186.55 193.125 204.065 193.188 207.012C193.236 209.143 195.522 222.726 196.956 228.806C193.876 224.33 191.121 211.664 191.473 208.45Z" fill="#2E5CFF"/>
<path d="M200.356 243.833C198.672 238.984 193.263 209.943 193.199 207.012C193.136 204.081 195.587 186.544 195.587 182.75C195.587 178.956 196.706 158.505 195.587 155.937C194.468 153.368 189.048 147.123 185.675 138.176C184.4 134.678 182.304 131.536 179.563 129.016L171.57 131.856L175.785 145.498C174.72 145.977 174.943 154.924 174.943 155.937C174.943 156.949 167.776 160.615 167.776 160.615C166.508 158.484 166.508 153.027 166.508 151.274C166.508 149.521 165.032 135.315 161.414 131.856C157.796 128.398 154.487 129.192 153.229 132.656C151.972 136.119 152.808 143.537 153.229 147.757C153.806 152.501 154.018 157.283 153.863 162.059C153.65 168.411 153.437 167.782 154.284 174.949C155.131 182.116 155.126 190.546 160.183 197.713C165.24 204.88 166.721 216.055 168.618 220.904C168.618 220.904 172.199 246.785 171.741 251" stroke="#263238" stroke-linecap="round" stroke-linejoin="round"/>
<path d="M167.76 160.615C167.76 160.615 169.023 166.513 171.869 169.466" stroke="#263238" stroke-linecap="round" stroke-linejoin="round"/>
<path d="M168.528 163.306C168.528 163.306 173.857 164.936 176.084 165.037" stroke="#263238" stroke-linecap="round" stroke-linejoin="round"/>
<path d="M174.928 155.936C174.928 155.936 178.722 154.183 181.146 155.238" stroke="#263238" stroke-linecap="round" stroke-linejoin="round"/>
<path d="M175.769 145.498C175.769 145.498 178.721 145.226 179.35 143.75" stroke="#263238" stroke-linecap="round" stroke-linejoin="round"/>
<path d="M161.143 199.216C161.143 199.216 166.812 206.255 168.496 209.836" stroke="#263238" stroke-linecap="round" stroke-linejoin="round"/>
<path d="M194.111 168.41C193.162 174 191.894 189.283 191.473 192.022" stroke="#263238" stroke-linecap="round" stroke-linejoin="round"/>
<path d="M195.923 157.871C196.083 162.933 194.857 165.565 194.857 165.565" stroke="#263238" stroke-linecap="round" stroke-linejoin="round"/>
<path d="M152.339 87.0366L191.409 97.3423C191.409 97.3423 177.677 139.018 174.89 144.187L170.233 180.517C170.233 180.517 145.273 179.42 133.795 175.951C133.795 175.951 141.053 138.117 141.442 133.071C141.831 128.025 152.339 87.0366 152.339 87.0366Z" fill="#2E5CFF"/>
<path opacity="0.2" d="M143.939 130.832L152.55 94.0167C152.55 94.0167 156.253 92.1783 157.686 90.4998L185.678 98.4608C185.678 98.4608 185.763 101.205 187.367 102.964L173.241 143.669L169.815 173.675C169.815 173.675 165.259 174.037 164.822 177.405C164.822 177.405 150.051 178.204 140.145 175.593C140.145 175.593 138.978 171.954 137.192 169.652L143.939 130.832Z" fill="black" fill-opacity="0.7"/>
<path d="M143.939 130.832L152.55 94.0167C152.55 94.0167 156.253 92.1783 157.686 90.4998L185.678 98.4608C185.678 98.4608 185.763 101.205 187.367 102.964L173.241 143.669L169.815 173.675C169.815 173.675 165.259 174.037 164.822 177.405C164.822 177.405 150.051 178.204 140.145 175.593C140.145 175.593 138.978 171.954 137.192 169.652L143.939 130.832Z" stroke="#263238" stroke-linecap="round" stroke-linejoin="round"/>
<path d="M151.106 132.746C151.106 132.746 153.648 123.154 162.6 124.875C171.552 126.597 166.496 138.416 166.496 138.416C166.496 138.416 166.549 147.954 159.286 146.638C152.987 145.497 149.63 142.039 151.106 132.746Z" fill="#2E5CFF" stroke="#263238" stroke-linecap="round" stroke-linejoin="round"/>
<path d="M155.955 97.5176C155.955 97.5176 153.248 108.479 152.549 110.589" stroke="#263238" stroke-linecap="round" stroke-linejoin="round"/>
<path d="M158.274 98.4665L156.696 104.477" stroke="#263238" stroke-linecap="round" stroke-linejoin="round"/>
<path d="M178.037 102.681L183.424 104.578L182.833 106.268H181.149L177.563 105.426L178.037 102.681Z" fill="#2E5CFF" stroke="#263238" stroke-linecap="round" stroke-linejoin="round"/>
<path d="M177.141 106.267L181.148 107.53L181.99 108.372L181.148 110.589L176.507 109.006L177.141 106.267Z" fill="#2E5CFF" stroke="#263238" stroke-linecap="round" stroke-linejoin="round"/>
<path d="M176.508 110.061L181.149 111.34L180.494 113.013H178.037L175.773 112.065L176.508 110.061Z" fill="#2E5CFF" stroke="#263238" stroke-linecap="round" stroke-linejoin="round"/>
<path d="M175.771 113.013L179.352 114.489V115.539L178.457 116.386L175.121 115.438V113.642L175.771 113.013Z" fill="#2E5CFF" stroke="#263238" stroke-linecap="round" stroke-linejoin="round"/>
<path d="M178.825 117.772V119.413C178.853 119.594 178.838 119.779 178.782 119.953C178.725 120.127 178.629 120.285 178.5 120.415C178.368 120.487 178.219 120.525 178.069 120.525C177.918 120.525 177.769 120.487 177.637 120.415C177.365 120.287 177.104 120.095 176.848 119.983C176.012 119.648 174.983 120.069 174.184 119.621C174.184 118.603 173.827 116.989 175.085 116.957C175.292 116.973 178.825 118.145 178.825 117.772Z" fill="#2E5CFF" stroke="#263238" stroke-linecap="round" stroke-linejoin="round"/>
<path d="M177.349 121.881C177.309 122.256 177.241 122.628 177.147 122.994C177.03 123.468 176.801 123.996 176.326 124.124C176.071 124.166 175.809 124.144 175.564 124.06L172.57 123.271C172.714 122.711 172.892 122.159 173.102 121.619C173.507 121.028 173.369 121.039 174.078 120.991C175.229 120.943 176.166 122.024 177.349 121.881Z" fill="#2E5CFF" stroke="#263238" stroke-linecap="round" stroke-linejoin="round"/>
<path d="M167.235 99.2066L165.439 106.267L166.335 106.688L168.498 99.7288L167.235 99.2066Z" fill="#2E5CFF" stroke="#263238" stroke-linecap="round" stroke-linejoin="round"/>
<path d="M144.733 146.621L150.264 148.055L149.817 149.781L148.138 149.93L144.493 149.392L144.733 146.621Z" fill="#2E5CFF" stroke="#263238" stroke-linecap="round" stroke-linejoin="round"/>
<path d="M144.147 150.272L148.244 151.188L149.161 151.956L148.511 154.236L143.752 153.053L144.147 150.272Z" fill="#2E5CFF" stroke="#263238" stroke-linecap="round" stroke-linejoin="round"/>
<path d="M143.843 154.108L148.575 154.982L148.063 156.703L145.617 156.916L143.278 156.165L143.843 154.108Z" fill="#2E5CFF" stroke="#263238" stroke-linecap="round" stroke-linejoin="round"/>
<path d="M143.358 157.108L147.056 158.275L147.146 159.325L146.326 160.242L142.921 159.581L142.766 157.796L143.358 157.108Z" fill="#2E5CFF" stroke="#263238" stroke-linecap="round" stroke-linejoin="round"/>
<path d="M146.805 161.59L146.949 163.226C146.993 163.404 146.994 163.59 146.952 163.768C146.91 163.947 146.827 164.113 146.709 164.254C146.584 164.337 146.439 164.387 146.289 164.399C146.139 164.411 145.988 164.385 145.851 164.323C145.569 164.222 145.318 164.051 145.025 163.966C144.167 163.7 143.176 164.206 142.361 163.828C142.265 162.815 141.78 161.238 143.027 161.115C143.219 161.105 146.837 161.963 146.805 161.59Z" fill="#2E5CFF" stroke="#263238" stroke-linecap="round" stroke-linejoin="round"/>
<path d="M145.691 165.81C145.684 166.198 145.648 166.584 145.585 166.966C145.505 167.446 145.324 167.995 144.865 168.16C144.614 168.224 144.35 168.224 144.098 168.16L141.05 167.627C141.153 167.055 141.29 166.489 141.46 165.933C141.812 165.309 141.673 165.331 142.377 165.224C143.496 165.059 144.519 166.055 145.691 165.81Z" fill="#2E5CFF" stroke="#263238" stroke-linecap="round" stroke-linejoin="round"/>
<path d="M167.763 170.984C167.763 170.984 169.031 156.842 169.031 155.419" stroke="#263238" stroke-linecap="round" stroke-linejoin="round"/>
<path d="M165.232 170.35C165.232 170.35 165.765 162.996 165.861 161.717" stroke="#263238" stroke-linecap="round" stroke-linejoin="round"/>
<path d="M155.346 165.037L153.636 173.409H155.346L156.588 165.037H155.346Z" fill="#2E5CFF" stroke="#263238" stroke-linecap="round" stroke-linejoin="round"/>
<path opacity="0.2" d="M174.983 143.978C171.285 143.205 167.987 142.07 165.546 140.435C165.546 140.435 167.315 145.518 173.587 154.182L170.214 180.517C170.214 180.517 153.924 179.803 141.615 177.698C145.399 167.041 152.273 146.845 151.457 142.843C150.354 137.349 154.25 130.864 154.25 130.864C166.564 128.648 178.506 119.338 186.701 111.468C182.529 123.804 176.832 140.323 174.983 143.978Z" fill="black" fill-opacity="0.7"/>
<path d="M152.339 87.0366L191.409 97.3423C191.409 97.3423 177.677 139.018 174.89 144.187L170.233 180.517C170.233 180.517 145.273 179.42 133.795 175.951C133.795 175.951 141.053 138.117 141.442 133.071C141.831 128.025 152.339 87.0366 152.339 87.0366Z" stroke="#263238" stroke-linecap="round" stroke-linejoin="round"/>
<path d="M174 169.998L168.495 209.835C167.27 207.23 163.929 202.786 162.202 200.564C161.563 199.732 161.136 199.215 161.136 199.215L160.161 197.713C155.104 190.546 155.104 182.116 154.263 174.949C153.421 167.782 153.628 168.41 153.842 162.059C153.997 157.291 153.786 152.519 153.213 147.783C152.792 143.563 151.95 136.14 153.213 132.682C153.831 130.987 154.945 129.932 156.341 129.708C157.737 129.485 159.538 130.124 161.398 131.882C165.016 135.341 166.492 149.547 166.492 151.3C166.492 153.053 166.492 158.531 167.76 160.641C167.76 160.615 171.16 167.046 174 169.998Z" fill="white"/>
<path opacity="0.4" d="M159.746 194.872C160.897 196.343 161.68 198.464 162.202 200.564C161.563 199.732 161.137 199.215 161.137 199.215L160.161 197.713C155.104 190.546 155.104 182.116 154.263 174.949C153.421 167.782 153.628 168.41 153.842 162.059C153.997 157.291 153.786 152.519 153.213 147.783C152.792 143.563 151.95 136.14 153.213 132.682C153.831 130.987 154.945 129.932 156.341 129.708C159.005 130.465 161.669 133.177 162.597 137.818C164.195 145.609 156.985 139.316 155.318 145.918C153.65 152.52 156.074 154.3 157.071 155.963C158.067 157.625 156.794 161.291 155.318 166.215C153.842 171.139 156.586 190.828 159.746 194.872Z" fill="#2E5CFF"/>
<path d="M174.001 169.998C171.155 167.046 167.761 160.614 167.761 160.614C166.493 158.483 166.493 153.026 166.493 151.273C166.493 149.52 165.017 135.314 161.399 131.856C157.781 128.397 154.471 129.191 153.214 132.655C151.956 136.119 152.793 143.536 153.214 147.756C153.791 152.501 154.003 157.282 153.848 162.059C153.635 168.41 153.422 167.782 154.269 174.949C155.116 182.116 155.111 190.546 160.168 197.713L161.143 199.215C161.143 199.215 166.813 206.254 168.496 209.835" stroke="#263238" stroke-linecap="round" stroke-linejoin="round"/>
<path d="M155.345 153.139C155.345 153.139 160.178 150.639 162.597 150.853" stroke="#263238" stroke-linecap="round" stroke-linejoin="round"/>
<path opacity="0.2" d="M81.5374 84.8038C81.5374 84.8038 69.3135 71.3436 68.4715 70.5177C67.6296 69.6917 66.9955 55.3363 64.6722 49.0165C62.3489 42.6967 61.2246 5.58791 61.2246 5.58791C61.2246 5.58791 59.0132 2.84897 52.7786 4.32501C46.5441 5.80105 40.4321 3.05679 33.4782 7.06395C26.5243 11.0711 40.0111 68.3862 40.0111 68.3862L53.7005 112.012L81.5374 84.8038Z" fill="black" fill-opacity="0.7"/>
<path d="M89.9349 84.9052C89.9349 84.9052 84.457 119.899 78.7447 124.534C75.4462 127.199 70.3041 128.424 65.7427 128.265C62.439 128.147 59.4336 127.316 57.6645 125.808C53.4495 122.222 47.54 120.325 44.5986 118.007C41.6572 115.689 41.6465 107.467 39.7495 100.508C37.8525 93.5483 35.1082 93.3404 34.4795 86.3865C33.8507 79.4326 31.3142 58.1446 26.7316 52.2351C22.1489 46.3256 22.0423 41.695 20.1453 35.6843C18.2483 29.6735 4.3725 7.92727 4.3725 7.92727L38.1989 1C38.1989 1 41.5239 14.7639 45.0835 25.9914C46.7727 31.3201 48.5152 36.0839 49.9752 38.5245C52.7788 43.2451 55.2072 48.1786 57.2382 53.2795C61.0642 57.2867 63.1583 66.1643 63.7924 73.9388L72.8512 78.9903C79.8157 80.8927 89.9349 84.9052 89.9349 84.9052Z" fill="white"/>
<path opacity="0.4" d="M89.9346 84.9053C89.9346 84.9053 84.4567 119.899 78.7444 124.535C75.4459 127.199 70.3038 128.424 65.7424 128.265C54.9252 125.6 52.0158 119.568 50.5504 118.108C48.6001 116.163 46.037 104.312 47.4438 97.417C48.8506 90.5217 47.8381 87.9692 46.6765 84.6015C44.1027 77.1414 51.9518 73.1236 52.7618 70.2994C53.5718 67.4752 53.2947 51.681 49.7618 46.5442C47.8861 43.8106 43.053 29.7216 45.0885 26.0022C46.7777 31.3309 48.5202 36.0947 49.9802 38.5352C52.7838 43.2558 55.2122 48.1894 57.2432 53.2903C61.0692 57.2974 63.1634 66.175 63.7975 73.9495L72.8562 79.0011C79.8154 80.8928 89.9346 84.9053 89.9346 84.9053Z" fill="#2E5CFF"/>
<path d="M48.6263 82.4432C48.6263 82.4432 46.7186 84.6866 45.0347 84.6866" stroke="#263238" stroke-linecap="round" stroke-linejoin="round"/>
<path d="M52.778 90.0259C52.778 90.0259 50.7265 94.3847 47.4493 95.3545" stroke="#263238" stroke-linecap="round" stroke-linejoin="round"/>
<path d="M49.1333 115.572C49.1333 115.572 53.7746 113.568 54.5099 110.195" stroke="#263238" stroke-linecap="round" stroke-linejoin="round"/>
<path d="M72.8612 78.9961C72.8612 78.9961 71.6995 80.4721 71.6995 81.6604" stroke="#263238" stroke-linecap="round" stroke-linejoin="round"/>
<path d="M38.2202 1C38.2202 1 45.4565 30.9311 49.9965 38.5458C52.8001 43.2664 55.2285 48.1999 57.2595 53.3009C61.0855 57.308 63.1797 66.1909 63.8138 73.9654L72.8725 79.017C79.8264 80.914 89.9242 84.9212 89.9242 84.9212C89.9242 84.9212 84.4464 119.915 78.734 124.55C73.0217 129.186 61.9221 129.378 57.6592 125.797C53.3962 122.217 47.5347 120.314 44.5933 117.996C41.6518 115.678 41.6412 107.456 39.7442 100.497C37.8472 93.5376 35.1029 93.3298 34.4741 86.3759C33.8453 79.422 31.3089 58.134 26.7262 52.2245C22.1436 46.315 22.037 41.6844 20.14 35.6736C18.243 29.6629 4.3725 7.92727 4.3725 7.92727" stroke="#263238" stroke-linecap="round" stroke-linejoin="round"/>
<path d="M102.751 82.6351L46.8052 168.752L60.0096 170.222L100.129 171.89L104.238 95.2907L102.751 82.6351Z" fill="#263238" stroke="#263238" stroke-linecap="round" stroke-linejoin="round"/>
<path d="M102.751 82.6298L97.582 170.42L46.8052 168.752L50.8123 101.483L52.0592 80.5943L74.1839 81.4842L102.751 82.6298Z" fill="#757575"/>
<path d="M89.9826 160.311C93.3964 160.311 96.1638 157.543 96.1638 154.129C96.1638 150.716 93.3964 147.948 89.9826 147.948C86.5688 147.948 83.8013 150.716 83.8013 154.129C83.8013 157.543 86.5688 160.311 89.9826 160.311Z" fill="#BFBFBF" stroke="#263238" stroke-miterlimit="10"/>
<path d="M88.2402 150.026L92.4286 150.575" stroke="#263238" stroke-linecap="round" stroke-linejoin="round"/>
<path d="M87.1157 151.044L93.4088 151.657" stroke="#263238" stroke-linecap="round" stroke-linejoin="round"/>
<path d="M86.418 157.247L92.7165 157.86" stroke="#263238" stroke-linecap="round" stroke-linejoin="round"/>
<path d="M89.1723 152.445C89.3453 152.489 89.5282 152.463 89.683 152.375C89.8379 152.287 89.9527 152.142 90.0036 151.971L90.4725 152.019L89.9983 156.469L89.3002 156.394L89.6626 153L89.1297 152.941L89.1723 152.445Z" fill="#263238"/>
<path d="M91.5016 152.633C91.7786 152.633 91.9065 152.841 91.8746 153.134V153.187L91.6028 153.16V153.112C91.6028 152.984 91.5708 152.926 91.4802 152.915C91.3897 152.904 91.331 152.952 91.3204 153.08C91.3097 153.208 91.3524 153.32 91.5229 153.501C91.6094 153.575 91.6773 153.667 91.7209 153.772C91.7644 153.877 91.7824 153.99 91.7733 154.103C91.7414 154.396 91.5815 154.546 91.2991 154.514C91.0167 154.482 90.8941 154.301 90.9207 154.013V153.901L91.1872 153.928V154.061C91.1872 154.189 91.2245 154.242 91.3151 154.253C91.4056 154.263 91.4696 154.221 91.4802 154.093C91.4909 153.965 91.4483 153.853 91.2778 153.672C91.1912 153.599 91.1233 153.506 91.0798 153.401C91.0362 153.296 91.0182 153.183 91.0273 153.07C91.0646 152.75 91.2298 152.579 91.5016 152.633Z" fill="#263238"/>
<path d="M92.0022 152.707L92.8867 152.798L92.8548 153.059L92.5564 153.027L92.3912 154.583L92.1087 154.556L92.2739 152.995L91.9755 152.963L92.0022 152.707Z" fill="#263238"/>
<path d="M77.0233 86.5265L67.1108 84.3634C66.8549 84.3075 66.6022 84.4697 66.5464 84.7256L65.1978 90.9053C65.142 91.1612 65.3042 91.4139 65.5601 91.4698L75.4726 93.6329C75.7285 93.6887 75.9812 93.5265 76.037 93.2706L77.3856 87.0909C77.4414 86.835 77.2792 86.5823 77.0233 86.5265Z" fill="white" stroke="#263238" stroke-linecap="round" stroke-linejoin="round"/>
<path d="M70.3148 90.3722C70.3124 90.3297 70.3015 90.288 70.2828 90.2497C70.2776 90.2287 70.2776 90.2067 70.2828 90.1857C70.291 90.1697 70.304 90.1566 70.3201 90.1484C70.464 90.0206 70.2881 89.85 70.1496 89.8181C70.1017 89.8062 70.0515 89.8068 70.004 89.8198C69.9564 89.8329 69.9129 89.858 69.8778 89.8927L69.9897 89.477L70.48 89.5836L70.5333 89.3278L69.7979 89.168C69.7824 89.2037 69.7716 89.2413 69.7659 89.2799C69.7659 89.3172 69.8139 89.3278 69.8139 89.3705C69.8139 89.4131 69.8139 89.4078 69.8139 89.4291C69.8236 89.4603 69.8445 89.4868 69.8725 89.5037C69.8991 89.5037 69.9258 89.5516 69.9205 89.5836C69.9241 89.5939 69.9241 89.6052 69.9205 89.6156C69.9003 89.6646 69.8648 89.7057 69.8192 89.7328C69.7982 89.7368 69.7794 89.7482 69.7659 89.7648V89.7967C69.7659 89.834 69.7233 89.8554 69.6913 89.8767C69.6594 89.898 69.5794 90.0685 69.5475 90.1857L69.8139 90.2444V90.1911C69.8405 90.0632 69.9098 90.0312 69.9951 90.0472C70.0803 90.0632 70.1336 90.1271 70.1016 90.255L70.0164 90.6493C70.0164 90.7719 69.9258 90.8092 69.8352 90.7879C69.7446 90.7666 69.702 90.7133 69.7286 90.5854L69.7659 90.4202L69.4995 90.3616L69.4675 90.5108C69.4469 90.5686 69.4388 90.6302 69.4438 90.6914C69.4489 90.7525 69.4669 90.812 69.4967 90.8656C69.5266 90.9193 69.5675 90.966 69.6168 91.0026C69.6661 91.0391 69.7226 91.0648 69.7827 91.0778C69.8427 91.0908 69.9047 91.0908 69.9648 91.0779C70.0248 91.065 70.0814 91.0394 70.1307 91.0029C70.1801 90.9664 70.2211 90.9198 70.251 90.8662C70.2809 90.8125 70.299 90.7531 70.3041 90.692C70.323 90.5865 70.3266 90.4788 70.3148 90.3722Z" fill="#263238"/>
<path d="M73.7951 91.1179C73.7902 91.0757 73.7794 91.0345 73.7632 90.9953C73.758 90.9743 73.758 90.9523 73.7632 90.9314C73.7713 90.9153 73.7844 90.9022 73.8005 90.8941C73.939 90.7662 73.7632 90.5956 73.6299 90.5637C73.582 90.5518 73.5319 90.5524 73.4843 90.5654C73.4367 90.5785 73.3933 90.6036 73.3582 90.6383L73.4701 90.2226L73.9603 90.3292L74.0136 90.0734L73.2782 89.9136C73.2604 89.9484 73.2495 89.9864 73.2463 90.0255C73.2463 90.0628 73.2889 90.0734 73.2942 90.1161C73.2996 90.1587 73.2942 90.1534 73.2942 90.1747C73.304 90.2059 73.3248 90.2325 73.3528 90.2493C73.3795 90.2493 73.4061 90.2972 73.4008 90.3292C73.3955 90.3612 73.4008 90.3292 73.4008 90.3612C73.3804 90.4117 73.3426 90.4533 73.2942 90.4784C73.2753 90.4839 73.2586 90.4951 73.2463 90.5104C73.2463 90.5104 73.2463 90.5104 73.2463 90.5424C73.2463 90.5743 73.209 90.601 73.177 90.6223C73.145 90.6436 73.0651 90.8141 73.0331 90.9314L73.2996 90.99V90.9367C73.3262 90.8088 73.3955 90.7768 73.4807 90.7928C73.566 90.8088 73.614 90.8727 73.5873 91.0006L73.5021 91.3949C73.5021 91.5175 73.4115 91.5548 73.3209 91.5335C73.2303 91.5122 73.1877 91.4589 73.2143 91.331L73.2516 91.1658L72.9852 91.1072L72.9532 91.2564C72.9371 91.3124 72.9327 91.3712 72.9402 91.429C72.9477 91.4869 72.967 91.5425 72.9969 91.5926C73.0268 91.6427 73.0667 91.6861 73.114 91.7201C73.1614 91.7542 73.2152 91.7781 73.2722 91.7906C73.3291 91.803 73.3881 91.8036 73.4453 91.7923C73.5025 91.781 73.5568 91.7582 73.6048 91.7251C73.6528 91.692 73.6935 91.6494 73.7244 91.6C73.7554 91.5505 73.7758 91.4952 73.7845 91.4376C73.8058 91.3323 73.8094 91.2243 73.7951 91.1179V91.1179Z" fill="#263238"/>
<path d="M72.2334 90.724H72.26C72.26 90.6974 72.26 90.6707 72.26 90.6334H72.3773L72.4678 90.2231C72.4883 90.1648 72.4962 90.1028 72.4909 90.0412C72.4856 89.9796 72.4673 89.9198 72.4372 89.8658C72.4071 89.8118 72.3659 89.7648 72.3163 89.7279C72.2667 89.691 72.2098 89.665 72.1495 89.6518C72.0891 89.6385 72.0266 89.6381 71.9661 89.6508C71.9055 89.6635 71.8484 89.6888 71.7984 89.7252C71.7484 89.7616 71.7067 89.8081 71.6761 89.8618C71.6454 89.9155 71.6265 89.9751 71.6206 90.0366V90.1112C71.6579 90.1432 71.6792 90.1965 71.7165 90.2231C71.7538 90.2498 71.8124 90.2231 71.7964 90.3137C71.7804 90.4043 71.7645 90.3883 71.7964 90.415C71.8284 90.4416 71.8337 90.415 71.8391 90.4523C71.8455 90.4607 71.8491 90.471 71.8491 90.4816C71.8491 90.4922 71.8455 90.5025 71.8391 90.5109C71.8391 90.5109 71.8018 90.5109 71.7964 90.5588C71.7911 90.6068 71.7964 90.6388 71.7645 90.6494C71.7325 90.6601 71.6632 90.5855 71.6046 90.5908C71.5836 90.5969 71.5646 90.6085 71.5496 90.6245C71.5346 90.6404 71.5242 90.6601 71.5193 90.6814C71.4922 90.772 71.4726 90.8647 71.4607 90.9585C71.4413 91.0149 71.4345 91.0748 71.441 91.1341C71.4474 91.1934 71.4668 91.2505 71.4979 91.3014C71.5289 91.3523 71.5708 91.3957 71.6206 91.4286C71.6704 91.4614 71.7268 91.4828 71.7858 91.4913C71.8463 91.5076 71.9097 91.5103 71.9714 91.4992C72.0331 91.4882 72.0916 91.4637 72.1428 91.4274C72.19 91.3867 72.2297 91.338 72.26 91.2835C72.284 91.2563 72.2972 91.2212 72.2972 91.185C72.2972 91.1487 72.284 91.1136 72.26 91.0864C72.26 91.0864 72.26 91.0864 72.26 91.0864H72.2334L72.1961 90.9585C72.1961 90.9585 72.1961 90.9585 72.2334 90.9265C72.2707 90.8945 72.2334 90.8253 72.2867 90.788C72.34 90.7507 72.2227 90.7347 72.2334 90.724ZM72.0096 91.0864C71.9829 91.2143 71.9137 91.2516 71.8231 91.2302C71.7325 91.2089 71.6899 91.1503 71.7165 91.0224L71.9297 90.0633C71.9563 89.9354 72.0202 89.8981 72.1108 89.9194C72.2014 89.9407 72.244 89.9993 72.2174 90.1272L72.0096 91.0864Z" fill="#263238"/>
<path d="M72.7077 91.3849L72.6491 91.6567L72.3773 91.5981L72.4359 91.3263L72.7077 91.3849Z" fill="#263238"/>
<path d="M74.9352 90.9103C74.9672 90.9103 74.9672 90.7877 74.9778 90.7451C74.9983 90.6868 75.0062 90.6247 75.0009 90.5632C74.9956 90.5016 74.9773 90.4418 74.9472 90.3878C74.9171 90.3338 74.8759 90.2868 74.8263 90.2499C74.7767 90.213 74.7198 90.187 74.6595 90.1737C74.5991 90.1604 74.5366 90.1601 74.4761 90.1728C74.4155 90.1854 74.3584 90.2108 74.3084 90.2472C74.2584 90.2835 74.2167 90.3301 74.1861 90.3838C74.1554 90.4375 74.1365 90.4971 74.1306 90.5586L74.0506 90.9156C74.1199 90.9796 74.0507 91.0808 74.0826 91.1554C74.1146 91.23 74.0826 91.1554 74.0826 91.1874C74.0826 91.2193 74.0027 91.2353 74.0027 91.278C74.0027 91.3206 74.0027 91.278 74.0027 91.278C74.0027 91.278 73.9601 91.3419 73.9334 91.3739C73.9166 91.3992 73.9074 91.4288 73.9068 91.4591C73.8863 91.5175 73.8785 91.5795 73.8837 91.6411C73.889 91.7027 73.9073 91.7625 73.9374 91.8165C73.9675 91.8705 74.0087 91.9175 74.0583 91.9544C74.1079 91.9913 74.1648 92.0172 74.2252 92.0305C74.2855 92.0438 74.348 92.0441 74.4086 92.0315C74.4691 92.0188 74.5262 91.9935 74.5762 91.9571C74.6262 91.9207 74.6679 91.8741 74.6985 91.8204C74.7292 91.7668 74.7481 91.7072 74.754 91.6456L74.818 91.3526C74.818 91.278 74.9139 91.0808 74.818 91.0222C74.7221 90.9636 74.7754 91.0222 74.7647 90.9849C74.7582 90.9726 74.7547 90.9589 74.7547 90.9449C74.7547 90.931 74.7582 90.9173 74.7647 90.905C74.8286 90.8517 74.8766 90.9423 74.9352 90.9103ZM74.6102 91.3792C74.6102 91.4112 74.5569 91.4218 74.5302 91.4645C74.5097 91.5174 74.4971 91.5731 74.4929 91.6297C74.4663 91.7575 74.397 91.7895 74.3118 91.7735C74.2265 91.7575 74.1732 91.6936 74.2052 91.5657C74.2052 91.5284 74.2531 91.4218 74.2425 91.3899C74.2318 91.3579 74.1892 91.3899 74.1679 91.3259C74.1519 91.2702 74.1519 91.2111 74.1679 91.1554C74.1705 91.1431 74.1705 91.1304 74.1679 91.1181C74.1679 91.1181 74.1412 91.0701 74.1679 91.0488C74.1945 91.0275 74.1679 91.0488 74.1679 91.0488C74.1679 91.0488 74.1679 90.9796 74.1679 90.9316C74.1679 90.8836 74.1679 90.9316 74.1679 90.9316C74.3384 90.9955 74.3331 90.7344 74.3597 90.6279C74.3864 90.5213 74.4556 90.4627 74.5409 90.484C74.6261 90.5053 74.6741 90.5639 74.6475 90.6865C74.6113 90.795 74.5898 90.9079 74.5835 91.0222C74.6058 91.0256 74.6263 91.0364 74.6417 91.0528C74.6571 91.0693 74.6667 91.0903 74.6688 91.1128C74.6634 91.1409 74.6634 91.1699 74.6688 91.198C74.6688 91.198 74.6688 91.246 74.6688 91.2673C74.6688 91.2886 74.6368 91.2673 74.6155 91.2673C74.6008 91.2731 74.5877 91.2825 74.5775 91.2946C74.5672 91.3067 74.5602 91.3211 74.5569 91.3366L74.6102 91.3792Z" fill="#263238"/>
<path d="M71.9555 87.0367L73.7566 87.4311" stroke="#263238" stroke-linecap="round" stroke-linejoin="round"/>
<path d="M67.8629 86.1414L71.0601 86.8447" stroke="#263238" stroke-linecap="round" stroke-linejoin="round"/>
<path d="M67.5964 87.3776L69.7065 87.8358" stroke="#263238" stroke-linecap="round" stroke-linejoin="round"/>
<path opacity="0.4" d="M49.1329 167.974C51.9331 167.241 54.8125 166.854 57.7068 166.823C62.9075 166.695 66.2326 167.68 70.4956 165.57C74.7585 163.46 77.5241 167.26 81.6005 165.149C85.6769 163.039 87.5686 159.661 89.9239 159.735C92.2791 159.81 95.7854 122.067 96.9151 115.571C98.0448 109.076 100.448 90.969 101.274 87.2922L96.6327 169.125L49.1329 167.974Z" fill="white"/>
<path d="M49.3571 151.87L62.3537 167.68L48.6271 166.828L49.3571 151.87Z" fill="#2E5CFF" stroke="#263238" stroke-linecap="round" stroke-linejoin="round"/>
<path d="M83.849 120.607L83.6412 126.623C83.6123 127.463 83.4183 128.288 83.0703 129.053C82.7223 129.817 82.2272 130.506 81.6131 131.079C80.999 131.652 80.278 132.098 79.4913 132.392C78.7047 132.687 77.8677 132.823 77.0283 132.794L70.8471 132.575C70.0053 132.547 69.1776 132.352 68.4113 132.002C67.6451 131.652 66.9555 131.155 66.3821 130.538C65.8088 129.921 65.3629 129.197 65.0702 128.407C64.7775 127.617 64.6437 126.778 64.6765 125.936L64.9536 118.103C65.0133 116.408 65.7435 114.807 66.9835 113.651C68.2236 112.495 69.8721 111.879 71.5664 111.938L77.7477 112.151C77.9182 112.151 78.0887 112.151 78.2806 112.188C77.4156 113.02 76.8696 114.129 76.7376 115.322C76.6056 116.515 76.8958 117.716 77.5579 118.717C78.22 119.718 79.212 120.455 80.3614 120.801C81.5108 121.146 82.7449 121.078 83.849 120.607V120.607Z" fill="#2E5CFF" stroke="#263238" stroke-linecap="round" stroke-linejoin="round"/>
<path d="M84.9639 115.412C84.9446 115.99 84.7542 116.55 84.4167 117.02C84.0793 117.49 83.6101 117.849 83.0683 118.053C82.5265 118.256 81.9366 118.294 81.3732 118.162C80.8097 118.031 80.2981 117.734 79.9029 117.312C79.5077 116.889 79.2468 116.359 79.1532 115.787C79.0595 115.216 79.1374 114.63 79.3768 114.104C79.6162 113.577 80.0065 113.133 80.4983 112.828C80.9901 112.523 81.5613 112.371 82.1397 112.39C82.9143 112.418 83.6463 112.752 84.1756 113.318C84.7049 113.884 84.9883 114.637 84.9639 115.412V115.412Z" fill="#2E5CFF" stroke="#263238" stroke-linecap="round" stroke-linejoin="round"/>
<path opacity="0.4" d="M66.4353 126.682L75.5207 118.913C75.5207 118.913 74.3697 114.751 75.5207 113.435H71.1565C70.1055 113.431 69.0928 113.829 68.3253 114.547C67.5578 115.265 67.0933 116.249 67.0268 117.298L66.4353 126.682Z" fill="white"/>
<path opacity="0.4" d="M80.8011 115.572L82.7461 113.44C82.7461 113.44 81.5365 112.625 80.8011 113.44C80.0658 114.255 80.8011 115.572 80.8011 115.572Z" fill="white"/>
<path d="M79.8522 161.989L94.5007 162.623" stroke="#263238" stroke-linecap="round" stroke-linejoin="round"/>
<path d="M74.7801 163.466L94.5015 164.521" stroke="#263238" stroke-linecap="round" stroke-linejoin="round"/>
<path d="M89.3385 167.68H94.502" stroke="#263238" stroke-linecap="round" stroke-linejoin="round"/>
<path opacity="0.2" d="M71.3857 113.877C63.8296 117.511 55.6448 104.781 52.778 103.028C52.0712 102.581 51.4123 102.064 50.8117 101.482L52.0586 80.594L74.1779 81.4839C74.034 84.5958 74.082 88.0328 74.7747 90.0097C76.2667 94.3206 78.9364 110.248 71.3857 113.877Z" fill="black" fill-opacity="0.7"/>
<path opacity="0.4" d="M62.9182 114.527C62.9182 114.527 68.9609 117.149 71.6998 115.593C74.4387 114.037 77.3908 111.064 77.8118 104.461C77.8118 104.461 81.4086 113.76 74.1563 116.547C66.904 119.334 62.9182 114.527 62.9182 114.527Z" fill="white"/>
<path opacity="0.4" d="M60.5629 118.247C60.5629 118.247 72.8188 121.54 78.0622 115.582C78.0622 115.582 77.3588 118.891 71.6998 119.845C66.0407 120.799 60.5629 118.247 60.5629 118.247Z" fill="white"/>
<path opacity="0.4" d="M80.2738 96.9582C79.3413 95.301 80.4869 110.195 80.4869 110.195C80.4869 110.195 82.1708 100.358 80.2738 96.9582Z" fill="white"/>
<path d="M102.751 82.6298L97.582 170.42L46.8052 168.752L50.8123 101.483L52.0592 80.5943L74.1839 81.4842L102.751 82.6298Z" stroke="#263238" stroke-linecap="round" stroke-linejoin="round"/>
<path opacity="0.4" d="M100.182 170.888L98.3329 170.419L102.75 90.0259L103.534 95.3332L100.182 170.888Z" fill="white"/>
<path d="M71.385 113.877C70.6862 114.248 69.9092 114.448 69.118 114.46C68.3268 114.472 67.544 114.296 66.8343 113.946C65.6059 113.302 64.6148 112.283 64.0048 111.037C61.9 107.243 56.2036 98.5997 55.1539 96.1165C54.1041 93.6333 51.7808 86.6102 49.4628 83.6634C47.1449 80.7167 45.8767 76.2832 45.8767 76.2832L45.0347 33.2809C46.2976 39.4994 49.7772 46.5599 49.7772 46.5599C52.8004 48.133 55.3691 50.4558 57.2374 53.306C57.7812 53.8852 58.2683 54.515 58.6921 55.187C62.1344 60.5157 63.8023 70.1073 63.9835 77.5674C64.1966 86.0027 66.9355 89.8234 71.3637 97.1716C75.7918 104.52 74.2625 112.241 71.385 113.877Z" fill="white"/>
<path opacity="0.4" d="M71.3854 113.877C70.6838 114.239 69.9077 114.434 69.1182 114.446C68.3286 114.458 67.547 114.287 66.8347 113.946C69.2539 113.286 72.4298 112.044 71.6998 110.216C70.5541 107.296 67.2024 111.628 65.5185 110.216C63.8347 108.804 57.7173 100.705 61.6019 97.1397C65.4865 93.5748 64.2663 87.596 61.6019 85.9122C58.9376 84.2283 60.6694 80.2158 61.5114 73.9014C62.0442 70.0807 60.2165 61.427 58.7138 55.1818C62.1561 60.5104 63.824 70.102 64.0052 77.5622C64.2183 85.9974 66.9573 89.8181 71.3854 97.1663C75.8135 104.515 74.2629 112.342 71.3854 113.877Z" fill="#2E5CFF"/>
<path d="M45.0347 33.2546C46.2976 39.4732 49.7772 46.5337 49.7772 46.5337C52.8004 48.1068 55.3691 50.4296 57.2374 53.2798C61.6655 57.9157 63.7756 69.0899 63.9835 77.5199C64.1913 85.9498 66.9355 89.7758 71.3637 97.124C75.7918 104.472 74.5609 112.135 71.3637 113.877C69.1363 115.098 66.0936 114.831 63.9835 111.037C61.8733 107.243 56.1823 98.6001 55.1325 96.1169C54.0828 93.6337 51.7595 86.6106 49.4415 83.6638C47.1236 80.7171 45.8553 76.2836 45.8553 76.2836" stroke="#263238" stroke-linecap="round" stroke-linejoin="round"/>
<path d="M58.7249 95.3335C58.7249 95.3335 62.1672 95.0244 63.7445 93.7349" stroke="#263238" stroke-linecap="round" stroke-linejoin="round"/>
<path d="M44.6149 77.131C44.6149 77.131 43.9435 78.7296 47.4604 80.3282" stroke="#263238" stroke-linecap="round" stroke-linejoin="round"/>
</svg>
