<svg width="296" height="250" viewBox="0 0 296 250" fill="none" xmlns="http://www.w3.org/2000/svg">
<path d="M80.373 68.4262C82.4099 59.7959 77.0649 51.1484 68.4346 49.1115C59.8043 47.0746 51.1568 52.4195 49.1199 61.0498C47.0829 69.6801 52.4279 78.3277 61.0582 80.3646C69.6885 82.4015 78.336 77.0565 80.373 68.4262Z" fill="#E0E0E0"/>
<path d="M78.0292 76.0958C84.2994 69.8256 84.2994 59.6595 78.0292 53.3893C71.759 47.1191 61.593 47.1191 55.3227 53.3893C49.0525 59.6595 49.0525 69.8256 55.3227 76.0958C61.593 82.366 71.759 82.366 78.0292 76.0958Z" fill="#E6E6E6"/>
<path d="M66.6776 76.7608C73.3154 76.7608 78.6964 71.3798 78.6964 64.742C78.6964 58.1042 73.3154 52.7232 66.6776 52.7232C60.0398 52.7232 54.6588 58.1042 54.6588 64.742C54.6588 71.3798 60.0398 76.7608 66.6776 76.7608Z" fill="#F0F0F0"/>
<path d="M72.2994 67.6068C72.7617 70.2674 70.9332 72.0445 67.646 72.3219L67.5946 74.5202H65.5915L65.6531 72.3219C63.9328 72.1917 62.266 71.6642 60.784 70.781L61.6879 68.3054C62.8938 69.1093 64.2745 69.613 65.7148 69.7743L65.8072 66.4049C63.8452 65.8399 61.6982 65.1003 61.2565 62.6863C60.7942 60.0257 62.6536 58.228 66.0127 57.9918V55.7935H68.0569V58.0123C69.4145 58.1287 70.7349 58.5164 71.9399 59.1526L71.0975 61.5563C70.1336 60.9884 69.0574 60.6378 67.9439 60.5291L67.8617 64.0423C69.7929 64.6381 71.8885 65.3161 72.2994 67.6068ZM65.8586 63.4978L65.9408 60.6215C64.8416 60.8372 64.3074 61.4536 64.4204 62.2138C64.5334 62.9739 65.0881 63.1896 65.8586 63.4978ZM69.1458 68.1307C69.0533 67.5452 68.5294 67.1856 67.7795 66.9288L67.7179 69.6613C68.7657 69.4456 69.2896 68.8909 69.1458 68.1307Z" fill="white"/>
<path d="M177.42 64.5903H109.601V243.054H177.42V64.5903Z" fill="#2E5CFF"/>
<path opacity="0.5" d="M177.636 64.5903H127.064V243.054H177.636V64.5903Z" fill="black"/>
<path d="M266.02 125.434H198.201V243.044H266.02V125.434Z" fill="#2E5CFF"/>
<path opacity="0.3" d="M266.02 125.157H215.449V243.054H266.02V125.157Z" fill="black"/>
<path d="M88.3883 96.4144H20.5694V243.044H88.3883V96.4144Z" fill="#2E5CFF"/>
<path opacity="0.4" d="M88.3883 96.0549H37.8169V243.044H88.3883V96.0549Z" fill="black"/>
<path d="M46.9696 243.24C46.8772 245.428 53.7905 247.493 62.3783 247.862C70.9661 248.232 78.0644 246.753 78.1569 244.565C78.2493 242.377 71.3359 240.322 62.7481 239.953C54.1603 239.583 47.0621 241.062 46.9696 243.24Z" fill="#2E5CFF"/>
<path d="M47.1374 239.276L46.9697 243.227L78.1905 244.552L78.3582 240.6L47.1374 239.276Z" fill="#2E5CFF"/>
<path d="M47.134 239.285C47.0415 241.473 53.9549 243.538 62.5427 243.907C71.1305 244.277 78.2288 242.798 78.3212 240.61C78.4137 238.422 71.5003 236.367 62.9125 235.998C54.3247 235.628 47.2264 237.107 47.134 239.285Z" fill="#2E5CFF"/>
<path opacity="0.4" d="M47.134 239.285C47.0415 241.473 53.9549 243.538 62.5427 243.907C71.1305 244.277 78.2288 242.798 78.3212 240.61C78.4137 238.422 71.5003 236.367 62.9125 235.998C54.3247 235.628 47.2264 237.107 47.134 239.285Z" fill="white"/>
<path d="M49.1268 239.223C49.1268 239.365 49.1738 239.502 49.2603 239.614C50.2876 238.329 56.0094 237.559 62.8303 237.857C69.6512 238.155 75.2908 239.388 76.1845 240.754C76.2863 240.653 76.3452 240.517 76.3489 240.374C76.4105 238.894 70.3703 237.415 62.8406 237.097C55.3108 236.778 49.1884 237.744 49.1268 239.223Z" fill="#2E5CFF"/>
<path opacity="0.4" d="M49.1268 239.223C49.1268 239.365 49.1738 239.502 49.2603 239.614C50.2876 238.329 56.0094 237.559 62.8303 237.857C69.6512 238.155 75.2908 239.388 76.1845 240.754C76.2863 240.653 76.3452 240.517 76.3489 240.374C76.4105 238.894 70.3703 237.415 62.8406 237.097C55.3108 236.778 49.1884 237.744 49.1268 239.223Z" fill="#2E5CFF"/>
<path opacity="0.4" d="M49.2604 239.614C50.1952 240.98 55.8142 242.212 62.6146 242.5C69.415 242.788 75.1573 242.038 76.1846 240.754C75.2703 239.388 69.6513 238.155 62.8303 237.857C56.0094 237.559 50.3082 238.329 49.2604 239.614Z" fill="#2E5CFF"/>
<path d="M43.6516 237.251C43.5592 239.439 50.4725 241.504 59.0603 241.873C67.6481 242.243 74.7464 240.764 74.8389 238.586C74.9313 236.409 68.0179 234.333 59.4302 233.964C50.8424 233.594 43.7852 235.073 43.6516 237.251Z" fill="#2E5CFF"/>
<path d="M43.8605 233.307L43.6928 237.259L74.9136 238.583L75.0813 234.632L43.8605 233.307Z" fill="#2E5CFF"/>
<path d="M43.8571 233.306C43.7646 235.484 50.678 237.549 59.2658 237.919C67.8536 238.288 74.9519 236.809 75.0443 234.631C75.1368 232.454 68.2234 230.379 59.6356 230.009C51.0478 229.639 43.9495 231.118 43.8571 233.306Z" fill="#2E5CFF"/>
<path opacity="0.4" d="M43.8571 233.306C43.7646 235.484 50.678 237.549 59.2658 237.919C67.8536 238.288 74.9519 236.809 75.0443 234.631C75.1368 232.454 68.2234 230.379 59.6356 230.009C51.0478 229.639 43.9495 231.118 43.8571 233.306Z" fill="white"/>
<path d="M45.8499 233.234C45.8456 233.376 45.8931 233.515 45.9835 233.625C47.0107 232.341 52.7325 231.57 59.5534 231.878C66.3743 232.187 72.0139 233.399 72.9076 234.765C73.0012 234.663 73.0589 234.533 73.072 234.395C73.1336 232.916 67.0934 231.426 59.5637 231.108C52.034 230.789 45.9115 231.755 45.8499 233.234Z" fill="#2E5CFF"/>
<path opacity="0.4" d="M45.8499 233.234C45.8456 233.376 45.8931 233.515 45.9835 233.625C47.0107 232.341 52.7325 231.57 59.5534 231.878C66.3743 232.187 72.0139 233.399 72.9076 234.765C73.0012 234.663 73.0589 234.533 73.072 234.395C73.1336 232.916 67.0934 231.426 59.5637 231.108C52.034 230.789 45.9115 231.755 45.8499 233.234Z" fill="#2E5CFF"/>
<path opacity="0.4" d="M45.9835 233.625C46.908 234.991 52.5373 236.224 59.3377 236.511C66.1381 236.799 71.8804 236.049 72.9076 234.765C71.9934 233.399 66.3743 232.166 59.5534 231.878C52.7325 231.591 47.021 232.341 45.9835 233.625Z" fill="#2E5CFF"/>
<path d="M44.1138 230.04C44.0213 232.228 50.9347 234.292 59.5225 234.662C68.1103 235.032 75.2086 233.553 75.3011 231.365C75.3935 229.177 68.4801 227.122 59.8923 226.752C51.3045 226.383 44.2063 227.862 44.1138 230.04Z" fill="#2E5CFF"/>
<path d="M44.2855 226.088L44.1178 230.04L75.3386 231.365L75.5063 227.413L44.2855 226.088Z" fill="#2E5CFF"/>
<path d="M44.2783 226.085C44.1858 228.273 51.0992 230.337 59.687 230.707C68.2748 231.077 75.3628 229.598 75.4553 227.42C75.5477 225.242 68.6343 223.167 60.0465 222.797C51.4587 222.428 44.3707 223.907 44.2783 226.085Z" fill="#2E5CFF"/>
<path opacity="0.4" d="M44.2783 226.085C44.1858 228.273 51.0992 230.337 59.687 230.707C68.2748 231.077 75.3628 229.598 75.4553 227.42C75.5477 225.242 68.6343 223.167 60.0465 222.797C51.4587 222.428 44.3707 223.907 44.2783 226.085Z" fill="white"/>
<path d="M46.2711 226.023C46.2711 226.164 46.318 226.302 46.4046 226.413C47.4319 225.129 53.1536 224.359 59.9746 224.667C66.7955 224.975 72.4351 226.187 73.3288 227.554C73.43 227.457 73.489 227.324 73.4932 227.184C73.5548 225.705 67.5146 224.215 59.9848 223.897C52.4551 223.578 46.3327 224.544 46.2711 226.023Z" fill="#2E5CFF"/>
<path opacity="0.4" d="M46.2711 226.023C46.2711 226.164 46.318 226.302 46.4046 226.413C47.4319 225.129 53.1536 224.359 59.9746 224.667C66.7955 224.975 72.4351 226.187 73.3288 227.554C73.43 227.457 73.489 227.324 73.4932 227.184C73.5548 225.705 67.5146 224.215 59.9848 223.897C52.4551 223.578 46.3327 224.544 46.2711 226.023Z" fill="#2E5CFF"/>
<path opacity="0.4" d="M46.4046 226.413C47.3394 227.78 52.9584 229.012 59.7588 229.3C66.5592 229.588 72.3015 228.838 73.3288 227.554C72.4145 226.187 66.7955 224.955 59.9745 224.667C53.1536 224.379 47.4524 225.15 46.4046 226.413Z" fill="#2E5CFF"/>
<path d="M40.8369 224.061C40.7444 226.239 47.6578 228.304 56.2456 228.673C64.8334 229.043 71.9317 227.564 72.0242 225.386C72.1166 223.208 65.2032 221.133 56.6154 220.764C48.0276 220.394 40.9293 221.873 40.8369 224.061Z" fill="#2E5CFF"/>
<path d="M40.9983 220.079L40.8306 224.03L72.0514 225.355L72.2191 221.404L40.9983 220.079Z" fill="#2E5CFF"/>
<path d="M41.0013 220.106C40.9089 222.284 47.8222 224.349 56.41 224.718C64.9978 225.088 72.0961 223.609 72.1886 221.431C72.281 219.253 65.3676 217.178 56.7799 216.809C48.1921 216.439 41.0938 217.959 41.0013 220.106Z" fill="#2E5CFF"/>
<path opacity="0.4" d="M41.0013 220.106C40.9089 222.284 47.8222 224.349 56.41 224.718C64.9978 225.088 72.0961 223.609 72.1886 221.431C72.281 219.253 65.3676 217.178 56.7799 216.809C48.1921 216.439 41.0938 217.959 41.0013 220.106Z" fill="white"/>
<path d="M42.9941 220.014C42.9879 220.156 43.0356 220.295 43.1277 220.404C44.1549 219.12 49.8767 218.35 56.6976 218.658C63.5186 218.966 69.1582 220.178 70.0519 221.544C70.1454 221.442 70.2031 221.312 70.2162 221.174C70.2779 219.695 64.2376 218.206 56.7079 217.887C49.1782 217.569 43.0558 218.555 42.9941 220.014Z" fill="#2E5CFF"/>
<path opacity="0.4" d="M42.9941 220.014C42.9879 220.156 43.0356 220.295 43.1277 220.404C44.1549 219.12 49.8767 218.35 56.6976 218.658C63.5186 218.966 69.1582 220.178 70.0519 221.544C70.1454 221.442 70.2031 221.312 70.2162 221.174C70.2779 219.695 64.2376 218.206 56.7079 217.887C49.1782 217.569 43.0558 218.555 42.9941 220.014Z" fill="#2E5CFF"/>
<path opacity="0.4" d="M43.1277 220.425C44.0522 221.791 49.6816 223.023 56.4819 223.311C63.2823 223.599 69.0246 222.849 70.0519 221.565C69.1376 220.199 63.5186 218.966 56.6977 218.678C49.8767 218.391 44.1652 219.14 43.1277 220.425Z" fill="#2E5CFF"/>
<path d="M45.8397 218.986C45.7472 221.164 52.6606 223.229 61.2484 223.599C69.8362 223.969 76.9345 222.489 77.0269 220.312C77.1194 218.134 70.206 216.059 61.6182 215.689C53.0304 215.319 45.9321 216.798 45.8397 218.986Z" fill="#2E5CFF"/>
<path d="M46.0122 215.03L45.8445 218.981L77.0653 220.306L77.233 216.355L46.0122 215.03Z" fill="#2E5CFF"/>
<path d="M46.0143 215.031C45.9218 217.209 52.8352 219.274 61.423 219.644C70.0108 220.014 77.1091 218.534 77.2015 216.357C77.294 214.179 70.3806 212.104 61.7928 211.734C53.205 211.364 46.1067 212.823 46.0143 215.031Z" fill="#2E5CFF"/>
<path opacity="0.4" d="M46.0143 215.031C45.9218 217.209 52.8352 219.274 61.423 219.644C70.0108 220.014 77.1091 218.534 77.2015 216.357C77.294 214.179 70.3806 212.104 61.7928 211.734C53.205 211.364 46.1067 212.823 46.0143 215.031Z" fill="white"/>
<path d="M47.9969 214.96C48.0004 215.1 48.047 215.237 48.1304 215.35C49.1577 214.066 54.8897 213.295 61.7004 213.604C68.511 213.912 74.1712 215.124 75.0546 216.49C75.1546 216.391 75.2165 216.26 75.2292 216.12C75.2909 214.641 69.2506 213.152 61.7209 212.833C54.1912 212.515 48.0688 213.48 47.9969 214.96Z" fill="#2E5CFF"/>
<path opacity="0.4" d="M47.9969 214.96C48.0004 215.1 48.047 215.237 48.1304 215.35C49.1577 214.066 54.8897 213.295 61.7004 213.604C68.511 213.912 74.1712 215.124 75.0546 216.49C75.1546 216.391 75.2165 216.26 75.2292 216.12C75.2909 214.641 69.2506 213.152 61.7209 212.833C54.1912 212.515 48.0688 213.48 47.9969 214.96Z" fill="#2E5CFF"/>
<path opacity="0.4" d="M48.1304 215.35C49.0652 216.716 54.6842 217.949 61.4846 218.236C68.285 218.524 74.0376 217.774 75.0546 216.49C74.1506 215.124 68.5213 213.891 61.7004 213.604C54.8794 213.316 49.1782 214.066 48.1304 215.35Z" fill="#2E5CFF"/>
<path d="M42.5627 212.998C42.4703 215.175 49.3837 217.25 57.9715 217.61C66.5593 217.969 73.6576 216.5 73.75 214.323C73.8425 212.145 66.9291 210.07 58.3413 209.7C49.7535 209.33 42.6244 210.768 42.5627 212.998Z" fill="#2E5CFF"/>
<path d="M42.725 209.031L42.5573 212.982L73.7782 214.307L73.9458 210.356L42.725 209.031Z" fill="#2E5CFF"/>
<path d="M42.7271 209.043C42.6346 211.22 49.548 213.295 58.1358 213.655C66.7236 214.015 73.8219 212.556 73.9143 210.368C74.0068 208.18 67.0934 206.115 58.5056 205.745C49.9178 205.375 42.8195 206.855 42.7271 209.043Z" fill="#2E5CFF"/>
<path opacity="0.4" d="M42.7271 209.043C42.6346 211.22 49.548 213.295 58.1358 213.655C66.7236 214.015 73.8219 212.556 73.9143 210.368C74.0068 208.18 67.0934 206.115 58.5056 205.745C49.9178 205.375 42.8195 206.855 42.7271 209.043Z" fill="white"/>
<path d="M44.6788 208.971C44.6754 209.113 44.7228 209.251 44.8123 209.361C45.8396 208.077 51.5614 207.307 58.3823 207.615C65.2032 207.923 70.8428 209.135 71.7365 210.512C71.8366 210.41 71.8952 210.274 71.9009 210.131C71.9625 208.652 65.9223 207.173 58.3926 206.844C50.8628 206.516 44.7815 207.491 44.6788 208.971Z" fill="#2E5CFF"/>
<path opacity="0.4" d="M44.6788 208.971C44.6754 209.113 44.7228 209.251 44.8123 209.361C45.8396 208.077 51.5614 207.307 58.3823 207.615C65.2032 207.923 70.8428 209.135 71.7365 210.512C71.8366 210.41 71.8952 210.274 71.9009 210.131C71.9625 208.652 65.9223 207.173 58.3926 206.844C50.8628 206.516 44.7815 207.491 44.6788 208.971Z" fill="#2E5CFF"/>
<path opacity="0.4" d="M44.8535 209.361C45.7883 210.727 51.4073 211.96 58.2077 212.258C65.0081 212.556 70.7504 211.796 71.7777 210.512C70.8634 209.135 65.2444 207.902 58.4234 207.615C51.6025 207.327 45.9013 208.077 44.8535 209.361Z" fill="#2E5CFF"/>
<path d="M0.414643 241.329C0.311918 243.517 7.2253 245.582 15.8234 245.941C24.4214 246.301 31.4992 244.842 31.5916 242.654C31.6841 240.466 24.781 238.401 16.1829 238.042C7.58484 237.682 0.507096 239.141 0.414643 241.329Z" fill="#2E5CFF"/>
<path d="M0.572468 237.355L0.404785 241.306L31.6256 242.631L31.7933 238.679L0.572468 237.355Z" fill="#2E5CFF"/>
<path d="M0.579042 237.374C0.486589 239.562 7.39997 241.627 15.9878 241.997C24.5756 242.367 31.6738 240.887 31.7663 238.699C31.8588 236.511 24.9454 234.446 16.3576 234.087C7.76978 233.727 0.671494 235.186 0.579042 237.374Z" fill="#2E5CFF"/>
<path opacity="0.4" d="M0.579042 237.374C0.486589 239.562 7.39997 241.627 15.9878 241.997C24.5756 242.367 31.6738 240.887 31.7663 238.699C31.8588 236.511 24.9454 234.446 16.3576 234.087C7.76978 233.727 0.671494 235.186 0.579042 237.374Z" fill="white"/>
<path d="M2.56162 237.302C2.5532 237.445 2.60116 237.585 2.69516 237.693C3.7224 236.409 9.44418 235.638 16.2651 235.946C23.086 236.254 28.7256 237.477 29.6193 238.843C29.713 238.737 29.7706 238.604 29.7837 238.463C29.8453 236.984 23.8051 235.505 16.2754 235.186C8.74565 234.868 2.63352 235.823 2.56162 237.302Z" fill="#2E5CFF"/>
<path opacity="0.4" d="M2.56162 237.302C2.5532 237.445 2.60116 237.585 2.69516 237.693C3.7224 236.409 9.44418 235.638 16.2651 235.946C23.086 236.254 28.7256 237.477 29.6193 238.843C29.713 238.737 29.7706 238.604 29.7837 238.463C29.8453 236.984 23.8051 235.505 16.2754 235.186C8.74565 234.868 2.63352 235.823 2.56162 237.302Z" fill="#2E5CFF"/>
<path opacity="0.4" d="M2.70544 237.693C3.62997 239.059 9.25929 240.302 16.0597 240.589C22.8601 240.877 28.6024 240.127 29.6296 238.843C28.7154 237.477 23.0963 236.234 16.2754 235.946C9.45447 235.659 3.74297 236.45 2.70544 237.693Z" fill="#2E5CFF"/>
<path d="M13.9949 237.477C13.4813 239.603 19.8811 242.942 28.2737 244.935C36.6663 246.928 43.8879 246.825 44.3912 244.698C44.8946 242.572 38.4948 239.233 30.1022 237.241C21.7096 235.248 14.4983 235.35 13.9949 237.477Z" fill="#2E5CFF"/>
<path d="M14.9073 233.649L13.9921 237.497L44.3928 244.728L45.308 240.88L14.9073 233.649Z" fill="#2E5CFF"/>
<path d="M14.8886 233.625C14.375 235.751 20.7747 239.09 29.1673 241.093C37.56 243.096 44.7815 242.983 45.2849 240.857C45.7882 238.73 39.4193 235.422 31.0164 233.368C22.6135 231.313 15.4125 231.498 14.8886 233.625Z" fill="#2E5CFF"/>
<path opacity="0.4" d="M14.8886 233.625C14.375 235.751 20.7747 239.09 29.1673 241.093C37.56 243.096 44.7815 242.983 45.2849 240.857C45.7882 238.73 39.4193 235.422 31.0164 233.368C22.6135 231.313 15.4125 231.498 14.8886 233.625Z" fill="white"/>
<path d="M16.8712 233.933C16.8408 234.073 16.8628 234.219 16.9328 234.344C18.1964 233.317 23.949 233.625 30.585 235.207C37.221 236.789 42.5319 239.069 43.1688 240.579C43.2848 240.497 43.3684 240.377 43.405 240.24C43.744 238.802 38.0942 236.203 30.7596 234.457C23.4251 232.71 17.2205 232.495 16.8712 233.933Z" fill="#2E5CFF"/>
<path opacity="0.4" d="M16.8712 233.933C16.8408 234.073 16.8628 234.219 16.9328 234.344C18.1964 233.317 23.949 233.625 30.585 235.207C37.221 236.789 42.5319 239.069 43.1688 240.579C43.2848 240.497 43.3684 240.377 43.405 240.24C43.744 238.802 38.0942 236.203 30.7596 234.457C23.4251 232.71 17.2205 232.495 16.8712 233.933Z" fill="#2E5CFF"/>
<path opacity="0.4" d="M16.9431 234.395C17.6006 235.915 22.8806 238.196 29.5269 239.768C36.1732 241.339 41.9258 241.699 43.1791 240.631C42.5422 239.121 37.2518 236.84 30.5953 235.258C23.9387 233.676 18.1964 233.275 16.9431 234.395Z" fill="#2E5CFF"/>
<path d="M53.6159 211.693C61.3884 211.693 67.6892 205.392 67.6892 197.62C67.6892 189.847 61.3884 183.546 53.6159 183.546C45.8435 183.546 39.5426 189.847 39.5426 197.62C39.5426 205.392 45.8435 211.693 53.6159 211.693Z" fill="#2E5CFF"/>
<path d="M55.3005 211.693C63.073 211.693 69.3738 205.392 69.3738 197.62C69.3738 189.847 63.073 183.546 55.3005 183.546C47.5281 183.546 41.2272 189.847 41.2272 197.62C41.2272 205.392 47.5281 211.693 55.3005 211.693Z" fill="#2E5CFF"/>
<path opacity="0.5" d="M55.3005 211.693C63.073 211.693 69.3738 205.392 69.3738 197.62C69.3738 189.847 63.073 183.546 55.3005 183.546C47.5281 183.546 41.2272 189.847 41.2272 197.62C41.2272 205.392 47.5281 211.693 55.3005 211.693Z" fill="white"/>
<path d="M62.7543 205.071C66.8702 200.955 66.8703 194.282 62.7543 190.166C58.6383 186.05 51.965 186.05 47.8491 190.166C43.7331 194.282 43.7331 200.955 47.8491 205.071C51.965 209.187 58.6383 209.187 62.7543 205.071Z" fill="#2E5CFF"/>
<path opacity="0.3" d="M59.5637 201.102C59.1378 201.543 58.6243 201.889 58.0564 202.119C57.4885 202.349 56.8786 202.457 56.2662 202.437C55.328 202.468 54.4032 202.209 53.6168 201.696C52.8305 201.184 52.2206 200.442 51.8696 199.571H57.54V198.359H51.5614C51.5512 198.174 51.5512 197.989 51.5614 197.805C51.5509 197.62 51.5509 197.435 51.5614 197.25H57.5297V196.038H51.8696C52.2212 195.165 52.8327 194.422 53.6211 193.91C54.4095 193.397 55.3365 193.139 56.2765 193.172C56.8881 193.15 57.4975 193.257 58.0654 193.485C58.6333 193.714 59.1472 194.058 59.5739 194.497L59.7383 194.661L60.8785 193.541L60.7244 193.377C60.1402 192.78 59.4367 192.312 58.6598 192.004C57.8829 191.696 57.0498 191.555 56.2148 191.59C54.8381 191.536 53.483 191.944 52.3658 192.75C51.2486 193.557 50.4337 194.714 50.0513 196.038H48.0482V197.25H49.8151C49.8151 197.435 49.8151 197.62 49.8151 197.805C49.8151 197.989 49.8151 198.174 49.8151 198.359H48.0276V199.571H50.0308C50.4132 200.895 51.228 202.052 52.3453 202.859C53.4625 203.665 54.8176 204.073 56.1943 204.019C57.0307 204.051 57.8645 203.907 58.6414 203.595C59.4183 203.284 60.121 202.812 60.7039 202.211L60.858 202.047L59.7177 200.927L59.5637 201.102Z" fill="white"/>
<path d="M252.46 245.171C252.378 247.349 245.331 248.869 236.702 248.561C228.073 248.253 221.16 246.229 221.232 244.051C221.304 241.873 228.371 240.343 236.99 240.651C245.609 240.959 252.543 242.983 252.46 245.171Z" fill="#2E5CFF"/>
<path d="M221.361 240.063L221.22 244.015L252.449 245.133L252.59 241.18L221.361 240.063Z" fill="#2E5CFF"/>
<path d="M252.604 241.216C252.522 243.394 245.475 244.914 236.846 244.606C228.217 244.298 221.304 242.274 221.376 240.096C221.448 237.919 228.505 236.388 237.134 236.696C245.763 237.004 252.686 239.028 252.604 241.216Z" fill="#2E5CFF"/>
<path opacity="0.4" d="M252.604 241.216C252.522 243.394 245.475 244.914 236.846 244.606C228.217 244.298 221.304 242.274 221.376 240.096C221.448 237.919 228.505 236.388 237.134 236.696C245.763 237.004 252.686 239.028 252.604 241.216Z" fill="white"/>
<path d="M250.622 240.99C250.616 241.133 250.557 241.268 250.457 241.37C249.522 240.004 243.893 238.802 237.103 238.566C230.313 238.329 224.56 239.11 223.543 240.394C223.453 240.288 223.402 240.154 223.4 240.014C223.461 238.535 229.563 237.528 237.124 237.795C244.684 238.062 250.673 239.531 250.622 240.99Z" fill="#2E5CFF"/>
<path opacity="0.4" d="M250.622 240.99C250.616 241.133 250.557 241.268 250.457 241.37C249.522 240.004 243.893 238.802 237.103 238.566C230.313 238.329 224.56 239.11 223.543 240.394C223.453 240.288 223.402 240.154 223.4 240.014C223.461 238.535 229.563 237.528 237.124 237.795C244.684 238.062 250.673 239.531 250.622 240.99Z" fill="#2E5CFF"/>
<path opacity="0.4" d="M250.457 241.37C249.43 242.654 243.718 243.425 236.898 243.199C230.077 242.973 224.427 241.761 223.543 240.394C224.571 239.11 230.262 238.34 237.103 238.566C243.944 238.792 249.522 240.004 250.457 241.37Z" fill="#2E5CFF"/>
<path d="M256.2 239.459C256.117 241.637 249.07 243.158 240.442 242.849C231.813 242.541 224.899 240.518 224.971 238.329C225.043 236.141 232.111 234.631 240.729 234.94C249.348 235.248 256.292 237.271 256.2 239.459Z" fill="#2E5CFF"/>
<path d="M225.133 234.407L224.99 238.36L256.219 239.483L256.361 235.53L225.133 234.407Z" fill="#2E5CFF"/>
<path d="M256.343 235.505C256.261 237.682 249.214 239.203 240.585 238.894C231.956 238.586 225.033 236.563 225.115 234.375C225.197 232.187 232.244 230.676 240.873 230.985C249.502 231.293 256.415 233.368 256.343 235.505Z" fill="#2E5CFF"/>
<path opacity="0.4" d="M256.343 235.505C256.261 237.682 249.214 239.203 240.585 238.894C231.956 238.586 225.033 236.563 225.115 234.375C225.197 232.187 232.244 230.676 240.873 230.985C249.502 231.293 256.415 233.368 256.343 235.505Z" fill="white"/>
<path d="M254.361 235.279C254.357 235.419 254.298 235.551 254.196 235.648C253.262 234.292 247.632 233.091 240.842 232.854C234.052 232.618 228.289 233.399 227.283 234.683C227.192 234.576 227.141 234.442 227.139 234.303C227.2 232.823 233.302 231.817 240.863 232.084C248.423 232.351 254.412 233.799 254.361 235.279Z" fill="#2E5CFF"/>
<path opacity="0.4" d="M254.361 235.279C254.357 235.419 254.298 235.551 254.196 235.648C253.262 234.292 247.632 233.091 240.842 232.854C234.052 232.618 228.289 233.399 227.283 234.683C227.192 234.576 227.141 234.442 227.139 234.303C227.2 232.823 233.302 231.817 240.863 232.084C248.423 232.351 254.412 233.799 254.361 235.279Z" fill="#2E5CFF"/>
<path opacity="0.4" d="M254.238 235.648C253.21 236.943 247.499 237.703 240.678 237.487C233.857 237.271 228.207 236.049 227.324 234.683C228.351 233.399 234.042 232.628 240.883 232.854C247.725 233.08 253.262 234.292 254.238 235.648Z" fill="#2E5CFF"/>
<path d="M256.343 232.228C256.261 234.416 249.204 235.936 240.585 235.628C231.967 235.32 225.033 233.296 225.115 231.108C225.197 228.92 232.244 227.41 240.873 227.718C249.502 228.026 256.415 230.05 256.343 232.228Z" fill="#2E5CFF"/>
<path d="M225.266 227.183L225.124 231.135L256.352 232.258L256.494 228.306L225.266 227.183Z" fill="#2E5CFF"/>
<path d="M256.487 228.232C256.405 230.42 249.348 231.94 240.729 231.632C232.111 231.324 225.177 229.3 225.259 227.112C225.341 224.924 232.388 223.414 241.007 223.722C249.625 224.03 256.559 226.095 256.487 228.232Z" fill="#2E5CFF"/>
<path opacity="0.4" d="M256.487 228.232C256.405 230.42 249.348 231.94 240.729 231.632C232.111 231.324 225.177 229.3 225.259 227.112C225.341 224.924 232.388 223.414 241.007 223.722C249.625 224.03 256.559 226.095 256.487 228.232Z" fill="white"/>
<path d="M254.505 228.057C254.492 228.195 254.434 228.325 254.34 228.427C253.395 227.071 247.766 225.869 240.986 225.622C234.206 225.376 228.443 226.167 227.426 227.461C227.337 227.351 227.289 227.213 227.293 227.071C227.293 225.592 233.456 224.595 241.017 224.862C248.577 225.129 254.556 226.578 254.505 228.057Z" fill="#2E5CFF"/>
<path opacity="0.4" d="M254.505 228.057C254.492 228.195 254.434 228.325 254.34 228.427C253.395 227.071 247.766 225.869 240.986 225.622C234.206 225.376 228.443 226.167 227.426 227.461C227.337 227.351 227.289 227.213 227.293 227.071C227.293 225.592 233.456 224.595 241.017 224.862C248.577 225.129 254.556 226.578 254.505 228.057Z" fill="#2E5CFF"/>
<path opacity="0.4" d="M254.34 228.427C253.313 229.721 247.602 230.481 240.781 230.266C233.96 230.05 228.31 228.827 227.426 227.461C228.454 226.167 234.145 225.407 240.986 225.622C247.828 225.838 253.395 227.071 254.34 228.427Z" fill="#2E5CFF"/>
<path d="M260.083 226.516C260 228.704 252.943 230.225 244.325 229.916C235.706 229.608 228.772 227.584 228.854 225.396C228.936 223.208 235.983 221.698 244.612 222.007C253.241 222.315 260.154 224.338 260.083 226.516Z" fill="#2E5CFF"/>
<path d="M228.97 221.423L228.828 225.376L260.057 226.494L260.199 222.541L228.97 221.423Z" fill="#2E5CFF"/>
<path d="M260.216 222.561C260.144 224.749 253.087 226.27 244.468 225.961C235.85 225.653 228.916 223.63 228.998 221.441C229.08 219.253 236.127 217.743 244.746 218.052C253.364 218.36 260.298 220.383 260.216 222.561Z" fill="#2E5CFF"/>
<path opacity="0.4" d="M260.216 222.561C260.144 224.749 253.087 226.27 244.468 225.961C235.85 225.653 228.916 223.63 228.998 221.441C229.08 219.253 236.127 217.743 244.746 218.052C253.364 218.36 260.298 220.383 260.216 222.561Z" fill="white"/>
<path d="M258.244 222.345C258.231 222.483 258.173 222.613 258.079 222.715C257.134 221.359 251.505 220.157 244.725 219.911C237.945 219.664 232.182 220.455 231.166 221.75C231.076 221.64 231.029 221.501 231.032 221.359C231.083 219.88 237.195 218.884 244.756 219.151C252.317 219.418 258.346 220.866 258.244 222.345Z" fill="#2E5CFF"/>
<path opacity="0.4" d="M258.244 222.345C258.231 222.483 258.173 222.613 258.079 222.715C257.134 221.359 251.505 220.157 244.725 219.911C237.945 219.664 232.182 220.455 231.166 221.75C231.076 221.64 231.029 221.501 231.032 221.359C231.083 219.88 237.195 218.884 244.756 219.151C252.317 219.418 258.346 220.866 258.244 222.345Z" fill="#2E5CFF"/>
<path opacity="0.4" d="M258.079 222.715C257.052 224.01 251.341 224.77 244.52 224.554C237.699 224.338 232.049 223.116 231.166 221.75C232.193 220.455 237.884 219.695 244.725 219.911C251.567 220.127 257.134 221.359 258.079 222.715Z" fill="#2E5CFF"/>
<path d="M136.104 240.774C136.012 242.962 142.915 245.027 151.513 245.397C160.111 245.767 167.189 244.287 167.281 242.099C167.373 239.911 160.47 237.847 151.872 237.487C143.274 237.128 136.166 238.597 136.104 240.774Z" fill="#2E5CFF"/>
<path d="M136.22 236.806L136.053 240.757L167.273 242.082L167.441 238.131L136.22 236.806Z" fill="#2E5CFF"/>
<path d="M136.238 236.819C136.145 239.007 143.058 241.072 151.646 241.442C160.234 241.812 167.332 240.333 167.425 238.145C167.517 235.957 160.604 233.892 152.016 233.532C143.428 233.173 136.33 234.642 136.238 236.819Z" fill="#2E5CFF"/>
<path opacity="0.4" d="M136.238 236.819C136.145 239.007 143.058 241.072 151.646 241.442C160.234 241.812 167.332 240.333 167.425 238.145C167.517 235.957 160.604 233.892 152.016 233.532C143.428 233.173 136.33 234.642 136.238 236.819Z" fill="white"/>
<path d="M138.23 236.758C138.225 236.897 138.272 237.033 138.364 237.138C139.391 235.854 145.113 235.083 151.934 235.392C158.755 235.7 164.394 236.922 165.288 238.288C165.382 238.182 165.439 238.049 165.452 237.908C165.514 236.429 159.474 234.95 151.944 234.631C144.414 234.313 138.292 235.279 138.23 236.758Z" fill="#2E5CFF"/>
<path opacity="0.4" d="M138.23 236.758C138.225 236.897 138.272 237.033 138.364 237.138C139.391 235.854 145.113 235.083 151.934 235.392C158.755 235.7 164.394 236.922 165.288 238.288C165.382 238.182 165.439 238.049 165.452 237.908C165.514 236.429 159.474 234.95 151.944 234.631C144.414 234.313 138.292 235.279 138.23 236.758Z" fill="#2E5CFF"/>
<path opacity="0.4" d="M138.364 237.138C139.288 238.514 144.918 239.747 151.718 240.035C158.519 240.322 164.261 239.572 165.288 238.288C164.374 236.922 158.755 235.689 151.934 235.392C145.113 235.094 139.401 235.854 138.364 237.138Z" fill="#2E5CFF"/>
<path d="M132.786 234.785C132.694 236.974 139.607 239.038 148.195 239.408C156.783 239.778 163.881 238.299 163.973 236.111C164.066 233.923 157.152 231.858 148.565 231.498C139.977 231.139 132.878 232.608 132.786 234.785Z" fill="#2E5CFF"/>
<path d="M132.953 230.848L132.786 234.799L164.006 236.124L164.174 232.173L132.953 230.848Z" fill="#2E5CFF"/>
<path d="M132.961 230.831C132.868 233.019 139.782 235.083 148.369 235.453C156.957 235.823 164.055 234.344 164.148 232.156C164.24 229.968 157.327 227.913 148.739 227.543C140.151 227.174 133.022 228.653 132.961 230.831Z" fill="#2E5CFF"/>
<path opacity="0.4" d="M132.961 230.831C132.868 233.019 139.782 235.083 148.369 235.453C156.957 235.823 164.055 234.344 164.148 232.156C164.24 229.968 157.327 227.913 148.739 227.543C140.151 227.174 133.022 228.653 132.961 230.831Z" fill="white"/>
<path d="M134.943 230.769C134.949 230.909 134.995 231.045 135.077 231.159C136.104 229.875 141.836 229.105 148.647 229.403C155.457 229.701 161.117 230.933 162.001 232.299C162.102 232.197 162.163 232.063 162.176 231.919C162.237 230.44 156.197 228.961 148.667 228.642C141.137 228.324 135.015 229.259 134.943 230.769Z" fill="#2E5CFF"/>
<path opacity="0.4" d="M134.943 230.769C134.949 230.909 134.995 231.045 135.077 231.159C136.104 229.875 141.836 229.105 148.647 229.403C155.457 229.701 161.117 230.933 162.001 232.299C162.102 232.197 162.163 232.063 162.176 231.919C162.237 230.44 156.197 228.961 148.667 228.642C141.137 228.324 135.015 229.259 134.943 230.769Z" fill="#2E5CFF"/>
<path opacity="0.4" d="M135.077 231.159C136.012 232.526 141.631 233.758 148.431 234.046C155.231 234.333 160.984 233.584 162.001 232.3C161.097 230.933 155.468 229.701 148.647 229.403C141.826 229.105 136.104 229.875 135.077 231.159Z" fill="#2E5CFF"/>
<path d="M133.217 227.574C133.125 229.762 140.038 231.827 148.626 232.197C157.214 232.567 164.312 231.087 164.405 228.899C164.497 226.711 157.584 224.647 148.996 224.287C140.408 223.928 133.31 225.396 133.217 227.574Z" fill="#2E5CFF"/>
<path d="M133.379 223.619L133.211 227.57L164.432 228.895L164.599 224.944L133.379 223.619Z" fill="#2E5CFF"/>
<path d="M133.382 223.619C133.289 225.807 140.203 227.872 148.79 228.242C157.378 228.612 164.477 227.132 164.569 224.944C164.661 222.756 157.748 220.692 149.16 220.332C140.572 219.973 133.474 221.442 133.382 223.619Z" fill="#2E5CFF"/>
<path opacity="0.4" d="M133.382 223.619C133.289 225.807 140.203 227.872 148.79 228.242C157.378 228.612 164.477 227.132 164.569 224.944C164.661 222.756 157.748 220.692 149.16 220.332C140.572 219.973 133.474 221.442 133.382 223.619Z" fill="white"/>
<path d="M135.375 223.558C135.369 223.697 135.417 223.833 135.508 223.938C136.535 222.664 142.257 221.883 149.078 222.191C155.899 222.5 161.539 223.722 162.432 225.088C162.526 224.982 162.584 224.849 162.597 224.708C162.658 223.229 156.618 221.75 149.088 221.431C141.559 221.113 135.436 222.068 135.375 223.558Z" fill="#2E5CFF"/>
<path opacity="0.4" d="M135.375 223.558C135.369 223.697 135.417 223.833 135.508 223.938C136.535 222.664 142.257 221.883 149.078 222.191C155.899 222.5 161.539 223.722 162.432 225.088C162.526 224.982 162.584 224.849 162.597 224.708C162.658 223.229 156.618 221.75 149.088 221.431C141.559 221.113 135.436 222.068 135.375 223.558Z" fill="#2E5CFF"/>
<path opacity="0.4" d="M135.508 223.938C136.433 225.314 142.062 226.547 148.862 226.835C155.663 227.122 161.405 226.372 162.432 225.088C161.518 223.722 155.899 222.489 149.078 222.191C142.257 221.894 136.546 222.664 135.508 223.938Z" fill="#2E5CFF"/>
<path d="M129.94 221.585C129.848 223.773 136.761 225.838 145.349 226.208C153.937 226.578 161.035 225.099 161.128 222.911C161.22 220.722 154.307 218.668 145.719 218.298C137.131 217.928 130.023 219.408 129.94 221.585Z" fill="#2E5CFF"/>
<path d="M130.091 217.62L129.923 221.571L161.144 222.896L161.312 218.945L130.091 217.62Z" fill="#2E5CFF"/>
<path d="M130.105 217.63C130.012 219.818 136.926 221.883 145.514 222.253C154.101 222.623 161.2 221.144 161.292 218.956C161.385 216.768 154.471 214.713 145.883 214.343C137.296 213.973 130.197 215.453 130.105 217.63Z" fill="#2E5CFF"/>
<path opacity="0.4" d="M130.105 217.63C130.012 219.818 136.926 221.883 145.514 222.253C154.101 222.623 161.2 221.144 161.292 218.956C161.385 216.768 154.471 214.713 145.883 214.343C137.296 213.973 130.197 215.453 130.105 217.63Z" fill="white"/>
<path d="M132.098 217.569C132.094 217.709 132.137 217.847 132.221 217.959C133.248 216.675 138.98 215.905 145.801 216.213C152.622 216.521 158.262 217.733 159.155 219.099C159.251 218.995 159.309 218.861 159.32 218.719C159.381 217.25 153.341 215.761 145.811 215.442C138.282 215.124 132.159 216.09 132.098 217.569Z" fill="#2E5CFF"/>
<path opacity="0.4" d="M132.098 217.569C132.094 217.709 132.137 217.847 132.221 217.959C133.248 216.675 138.98 215.905 145.801 216.213C152.622 216.521 158.262 217.733 159.155 219.099C159.251 218.995 159.309 218.861 159.32 218.719C159.381 217.25 153.341 215.761 145.811 215.442C138.282 215.124 132.159 216.09 132.098 217.569Z" fill="#2E5CFF"/>
<path opacity="0.4" d="M132.221 217.959C133.156 219.325 138.775 220.558 145.575 220.846C152.376 221.133 158.128 220.383 159.155 219.099C158.241 217.733 152.612 216.5 145.801 216.213C138.991 215.925 133.269 216.675 132.221 217.959Z" fill="#2E5CFF"/>
<path d="M134.943 216.511C134.851 218.699 141.764 220.764 150.352 221.133C158.94 221.503 166.038 220.024 166.13 217.836C166.223 215.648 159.309 213.593 150.722 213.224C142.134 212.854 135.077 214.333 134.943 216.511Z" fill="#2E5CFF"/>
<path d="M135.116 212.561L134.948 216.512L166.169 217.837L166.336 213.886L135.116 212.561Z" fill="#2E5CFF"/>
<path d="M135.077 212.556C134.984 214.744 141.898 216.809 150.485 217.178C159.073 217.548 166.171 216.069 166.264 213.881C166.356 211.693 159.443 209.638 150.855 209.269C142.267 208.899 135.2 210.378 135.077 212.556Z" fill="#2E5CFF"/>
<path opacity="0.4" d="M135.077 212.556C134.984 214.744 141.898 216.809 150.485 217.178C159.073 217.548 166.171 216.069 166.264 213.881C166.356 211.693 159.443 209.638 150.855 209.269C142.267 208.899 135.2 210.378 135.077 212.556Z" fill="white"/>
<path d="M137.131 212.494C137.131 212.636 137.178 212.773 137.265 212.885C138.292 211.601 144.014 210.83 150.835 211.138C157.656 211.446 163.295 212.659 164.189 214.025C164.24 213.976 164.281 213.917 164.309 213.851C164.338 213.786 164.353 213.716 164.353 213.645C164.415 212.176 158.375 210.686 150.845 210.368C143.315 210.049 137.131 211.015 137.131 212.494Z" fill="#2E5CFF"/>
<path opacity="0.4" d="M137.131 212.494C137.131 212.636 137.178 212.773 137.265 212.885C138.292 211.601 144.014 210.83 150.835 211.138C157.656 211.446 163.295 212.659 164.189 214.025C164.24 213.976 164.281 213.917 164.309 213.851C164.338 213.786 164.353 213.716 164.353 213.645C164.415 212.176 158.375 210.686 150.845 210.368C143.315 210.049 137.131 211.015 137.131 212.494Z" fill="#2E5CFF"/>
<path opacity="0.4" d="M137.234 212.885C138.169 214.251 143.788 215.483 150.588 215.771C157.389 216.059 163.131 215.309 164.158 214.025C163.244 212.659 157.625 211.426 150.804 211.138C143.983 210.851 138.282 211.6 137.234 212.885Z" fill="#2E5CFF"/>
<path d="M131.666 210.532C131.574 212.71 138.487 214.775 147.075 215.144C155.663 215.514 162.751 214.035 162.853 211.857C162.956 209.679 156.033 207.604 147.445 207.235C138.857 206.865 131.759 208.344 131.666 210.532Z" fill="#2E5CFF"/>
<path d="M131.818 206.562L131.65 210.513L162.871 211.838L163.039 207.886L131.818 206.562Z" fill="#2E5CFF"/>
<path d="M131.831 206.577C131.738 208.755 138.651 210.82 147.239 211.19C155.827 211.559 162.925 210.08 163.018 207.902C163.11 205.725 156.197 203.65 147.609 203.28C139.021 202.91 131.923 204.389 131.831 206.577Z" fill="#2E5CFF"/>
<path opacity="0.4" d="M131.831 206.577C131.738 208.755 138.651 210.82 147.239 211.19C155.827 211.559 162.925 210.08 163.018 207.902C163.11 205.725 156.197 203.65 147.609 203.28C139.021 202.91 131.923 204.389 131.831 206.577Z" fill="white"/>
<path d="M133.824 206.505C133.817 206.648 133.865 206.787 133.957 206.896C134.984 205.612 140.706 204.841 147.527 205.149C154.348 205.458 159.988 206.67 160.881 208.036C160.975 207.934 161.032 207.804 161.046 207.666C161.107 206.187 155.067 204.697 147.537 204.379C140.008 204.06 133.885 205.026 133.824 206.505Z" fill="#2E5CFF"/>
<path opacity="0.4" d="M133.824 206.505C133.817 206.648 133.865 206.787 133.957 206.896C134.984 205.612 140.706 204.841 147.527 205.149C154.348 205.458 159.988 206.67 160.881 208.036C160.975 207.934 161.032 207.804 161.046 207.666C161.107 206.187 155.067 204.697 147.537 204.379C140.008 204.06 133.885 205.026 133.824 206.505Z" fill="#2E5CFF"/>
<path opacity="0.4" d="M133.957 206.896C134.881 208.262 140.511 209.495 147.311 209.782C154.112 210.07 159.854 209.32 160.881 208.036C159.967 206.67 154.348 205.437 147.527 205.149C140.706 204.862 134.994 205.632 133.957 206.896Z" fill="#2E5CFF"/>
<path d="M166.151 206.279C166.243 208.457 159.33 210.532 150.742 210.892C142.155 211.251 135.077 209.741 134.933 207.604C134.789 205.468 141.744 203.352 150.342 202.982C158.94 202.612 166.048 204.091 166.151 206.279Z" fill="#2E5CFF"/>
<path d="M165.285 203.355L134.036 204.604L134.194 208.559L165.443 207.309L165.285 203.355Z" fill="#2E5CFF"/>
<path d="M165.976 202.324C166.069 204.502 159.155 206.577 150.568 206.937C141.98 207.296 134.882 205.838 134.789 203.65C134.697 201.462 141.61 199.397 150.198 199.027C158.786 198.657 165.894 200.136 165.976 202.324Z" fill="#2E5CFF"/>
<path opacity="0.4" d="M165.976 202.324C166.069 204.502 159.155 206.577 150.568 206.937C141.98 207.296 134.882 205.838 134.789 203.65C134.697 201.462 141.61 199.397 150.198 199.027C158.786 198.657 165.894 200.136 165.976 202.324Z" fill="white"/>
<path d="M163.984 202.253C163.992 202.395 163.944 202.535 163.85 202.643C162.823 201.359 157.101 200.588 150.28 200.897C143.459 201.205 137.819 202.417 136.926 203.793C136.834 203.686 136.777 203.554 136.761 203.413C136.7 201.934 142.74 200.455 150.27 200.136C157.799 199.818 163.922 200.773 163.984 202.253Z" fill="#2E5CFF"/>
<path opacity="0.4" d="M163.984 202.253C163.992 202.395 163.944 202.535 163.85 202.643C162.823 201.359 157.101 200.588 150.28 200.897C143.459 201.205 137.819 202.417 136.926 203.793C136.834 203.686 136.777 203.554 136.761 203.413C136.7 201.934 142.74 200.455 150.27 200.136C157.799 199.818 163.922 200.773 163.984 202.253Z" fill="#2E5CFF"/>
<path opacity="0.4" d="M163.84 202.643C162.915 204.009 157.286 205.242 150.485 205.54C143.685 205.838 137.943 205.077 136.915 203.793C137.83 202.417 143.449 201.184 150.27 200.897C157.091 200.609 162.812 201.359 163.84 202.643Z" fill="#2E5CFF"/>
<path d="M169.428 200.29C169.52 202.478 162.607 204.543 154.019 204.903C145.431 205.262 138.333 203.804 138.241 201.616C138.148 199.428 145.062 197.363 153.649 197.003C162.237 196.644 169.335 198.102 169.428 200.29Z" fill="#2E5CFF"/>
<path d="M169.261 196.326L138.04 197.651L138.208 201.602L169.429 200.277L169.261 196.326Z" fill="#2E5CFF"/>
<path d="M169.253 196.387C169.346 198.575 162.443 200.64 153.845 201.01C145.246 201.379 138.169 199.9 138.076 197.712C137.984 195.524 144.887 193.459 153.485 193.1C162.083 192.74 169.161 194.148 169.253 196.387Z" fill="#2E5CFF"/>
<path opacity="0.4" d="M169.253 196.387C169.346 198.575 162.443 200.64 153.845 201.01C145.246 201.379 138.169 199.9 138.076 197.712C137.984 195.524 144.887 193.459 153.485 193.1C162.083 192.74 169.161 194.148 169.253 196.387Z" fill="white"/>
<path d="M167.271 196.264C167.269 196.405 167.222 196.541 167.137 196.654C166.11 195.37 160.378 194.6 153.567 194.908C146.757 195.216 141.096 196.438 140.213 197.805C140.111 197.704 140.052 197.568 140.049 197.424C139.977 195.945 146.027 194.466 153.547 194.148C161.066 193.829 167.199 194.784 167.271 196.264Z" fill="#2E5CFF"/>
<path opacity="0.4" d="M167.271 196.264C167.269 196.405 167.222 196.541 167.137 196.654C166.11 195.37 160.378 194.6 153.567 194.908C146.757 195.216 141.096 196.438 140.213 197.805C140.111 197.704 140.052 197.568 140.049 197.424C139.977 195.945 146.027 194.466 153.547 194.148C161.066 193.829 167.199 194.784 167.271 196.264Z" fill="#2E5CFF"/>
<path opacity="0.4" d="M167.137 196.654C166.202 198.02 160.583 199.263 153.783 199.551C146.982 199.838 141.23 199.089 140.213 197.805C141.117 196.438 146.746 195.195 153.567 194.908C160.388 194.62 166.089 195.36 167.137 196.654Z" fill="#2E5CFF"/>
<path d="M168.976 193.079C169.068 195.257 162.165 197.332 153.567 197.691C144.969 198.051 137.891 196.592 137.799 194.404C137.706 192.216 144.61 190.152 153.208 189.782C161.806 189.412 168.904 190.891 168.976 193.079Z" fill="#2E5CFF"/>
<path d="M168.832 189.129L137.611 190.453L137.779 194.405L169 193.08L168.832 189.129Z" fill="#2E5CFF"/>
<path d="M168.832 189.124C168.925 191.312 162.011 193.377 153.423 193.737C144.836 194.096 137.737 192.637 137.645 190.449C137.552 188.261 144.466 186.197 153.054 185.837C161.641 185.478 168.74 186.936 168.832 189.124Z" fill="#2E5CFF"/>
<path opacity="0.4" d="M168.832 189.124C168.925 191.312 162.011 193.377 153.423 193.737C144.836 194.096 137.737 192.637 137.645 190.449C137.552 188.261 144.466 186.197 153.054 185.837C161.641 185.478 168.74 186.936 168.832 189.124Z" fill="white"/>
<path d="M166.839 189.052C166.848 189.195 166.8 189.335 166.706 189.443C165.678 188.159 159.957 187.388 153.136 187.696C146.315 188.005 140.675 189.227 139.782 190.593C139.69 190.486 139.632 190.354 139.617 190.213C139.556 188.734 145.596 187.255 153.125 186.936C160.655 186.618 166.778 187.573 166.839 189.052Z" fill="#2E5CFF"/>
<path opacity="0.4" d="M166.839 189.052C166.848 189.195 166.8 189.335 166.706 189.443C165.678 188.159 159.957 187.388 153.136 187.696C146.315 188.005 140.675 189.227 139.782 190.593C139.69 190.486 139.632 190.354 139.617 190.213C139.556 188.734 145.596 187.255 153.125 186.936C160.655 186.618 166.778 187.573 166.839 189.052Z" fill="#2E5CFF"/>
<path opacity="0.4" d="M166.706 189.443C165.781 190.809 160.152 192.052 153.351 192.34C146.551 192.627 140.809 191.877 139.782 190.593C140.696 189.227 146.315 187.984 153.136 187.696C159.957 187.409 165.668 188.169 166.706 189.443Z" fill="#2E5CFF"/>
<path d="M172.284 187.142C172.376 189.33 165.463 191.394 156.875 191.764C148.287 192.134 141.189 190.655 141.096 188.467C141.004 186.279 147.917 184.214 156.505 183.854C165.093 183.495 172.191 184.902 172.284 187.142Z" fill="#2E5CFF"/>
<path d="M172.088 183.15L140.868 184.475L141.035 188.426L172.256 187.101L172.088 183.15Z" fill="#2E5CFF"/>
<path d="M172.109 183.135C172.201 185.323 165.288 187.388 156.7 187.758C148.112 188.128 141.014 186.649 140.922 184.461C140.829 182.273 147.743 180.208 156.33 179.848C164.918 179.489 172.058 180.978 172.109 183.135Z" fill="#2E5CFF"/>
<path opacity="0.4" d="M172.109 183.135C172.201 185.323 165.288 187.388 156.7 187.758C148.112 188.128 141.014 186.649 140.922 184.461C140.829 182.273 147.743 180.208 156.33 179.848C164.918 179.489 172.058 180.978 172.109 183.135Z" fill="white"/>
<path d="M170.126 183.033C170.123 183.17 170.076 183.303 169.993 183.413C168.966 182.129 163.234 181.358 156.423 181.666C149.612 181.975 143.952 183.197 143.069 184.563C142.968 184.461 142.906 184.326 142.894 184.183C142.832 182.704 148.873 181.225 156.402 180.906C163.932 180.588 170.055 181.595 170.126 183.033Z" fill="#2E5CFF"/>
<path opacity="0.4" d="M170.126 183.033C170.123 183.17 170.076 183.303 169.993 183.413C168.966 182.129 163.234 181.358 156.423 181.666C149.612 181.975 143.952 183.197 143.069 184.563C142.968 184.461 142.906 184.326 142.894 184.183C142.832 182.704 148.873 181.225 156.402 180.906C163.932 180.588 170.055 181.595 170.126 183.033Z" fill="#2E5CFF"/>
<path opacity="0.4" d="M170.003 183.454C169.068 184.83 163.449 186.063 156.649 186.351C149.849 186.638 144.096 185.888 143.079 184.604C143.983 183.238 149.612 181.995 156.433 181.708C163.254 181.42 168.976 182.17 170.003 183.454Z" fill="#2E5CFF"/>
<path d="M167.271 182.005C167.363 184.193 160.45 186.258 151.862 186.628C143.274 186.998 136.104 185.529 136.104 183.341C136.104 181.153 142.925 179.088 151.513 178.729C160.1 178.369 167.178 179.838 167.271 182.005Z" fill="#2E5CFF"/>
<path d="M167.111 178.056L135.891 179.381L136.058 183.332L167.279 182.007L167.111 178.056Z" fill="#2E5CFF"/>
<path d="M167.106 178.061C167.199 180.249 160.285 182.314 151.698 182.683C143.11 183.053 136.012 181.574 135.919 179.386C135.827 177.198 142.74 175.133 151.328 174.774C159.916 174.414 167.014 175.842 167.106 178.061Z" fill="#2E5CFF"/>
<path opacity="0.4" d="M167.106 178.061C167.199 180.249 160.285 182.314 151.698 182.683C143.11 183.053 136.012 181.574 135.919 179.386C135.827 177.198 142.74 175.133 151.328 174.774C159.916 174.414 167.014 175.842 167.106 178.061Z" fill="white"/>
<path d="M165.113 177.999C165.119 178.138 165.071 178.274 164.98 178.379C163.953 177.095 158.231 176.325 151.41 176.633C144.589 176.941 138.949 178.164 138.056 179.53C137.958 179.426 137.9 179.292 137.891 179.15C137.83 177.67 143.87 176.191 151.4 175.873C158.929 175.554 165.052 176.52 165.113 177.999Z" fill="#2E5CFF"/>
<path opacity="0.4" d="M165.113 177.999C165.119 178.138 165.071 178.274 164.98 178.379C163.953 177.095 158.231 176.325 151.41 176.633C144.589 176.941 138.949 178.164 138.056 179.53C137.958 179.426 137.9 179.292 137.891 179.15C137.83 177.67 143.87 176.191 151.4 175.873C158.929 175.554 165.052 176.52 165.113 177.999Z" fill="#2E5CFF"/>
<path opacity="0.4" d="M164.98 178.379C164.045 179.756 158.426 180.989 151.626 181.276C144.825 181.564 139.083 180.814 138.056 179.53C138.97 178.164 144.589 176.931 151.41 176.633C158.231 176.335 163.932 177.095 164.98 178.379Z" fill="#2E5CFF"/>
<path d="M170.558 176.027C170.65 178.215 163.737 180.28 155.149 180.649C146.561 181.019 139.473 179.54 139.381 177.352C139.288 175.164 146.192 173.099 154.79 172.74C163.388 172.38 170.455 173.849 170.558 176.027Z" fill="#2E5CFF"/>
<path d="M170.378 172.087L139.158 173.412L139.325 177.364L170.546 176.039L170.378 172.087Z" fill="#2E5CFF"/>
<path d="M170.383 172.072C170.476 174.26 163.562 176.325 154.975 176.695C146.387 177.064 139.288 175.585 139.196 173.397C139.104 171.209 146.017 169.155 154.605 168.785C163.193 168.415 170.291 169.894 170.383 172.072Z" fill="#2E5CFF"/>
<path opacity="0.4" d="M170.383 172.072C170.476 174.26 163.562 176.325 154.975 176.695C146.387 177.064 139.288 175.585 139.196 173.397C139.104 171.209 146.017 169.155 154.605 168.785C163.193 168.415 170.291 169.894 170.383 172.072Z" fill="white"/>
<path d="M168.39 172.01C168.395 172.152 168.347 172.291 168.257 172.401C167.23 171.117 161.508 170.346 154.687 170.644C147.866 170.942 142.226 172.175 141.333 173.541C141.239 173.435 141.181 173.302 141.168 173.161C141.107 171.682 147.147 170.202 154.677 169.884C162.206 169.565 168.329 170.531 168.39 172.01Z" fill="#2E5CFF"/>
<path opacity="0.4" d="M168.39 172.01C168.395 172.152 168.347 172.291 168.257 172.401C167.23 171.117 161.508 170.346 154.687 170.644C147.866 170.942 142.226 172.175 141.333 173.541C141.239 173.435 141.181 173.302 141.168 173.161C141.107 171.682 147.147 170.202 154.677 169.884C162.206 169.565 168.329 170.531 168.39 172.01Z" fill="#2E5CFF"/>
<path opacity="0.4" d="M168.257 172.401C167.332 173.767 161.703 175 154.903 175.287C148.102 175.575 142.36 174.825 141.333 173.541C142.247 172.175 147.866 170.942 154.687 170.644C161.508 170.346 167.219 171.117 168.257 172.401Z" fill="#2E5CFF"/>
<path d="M157.547 171.551C164.825 168.823 168.513 160.711 165.785 153.433C163.057 146.155 154.945 142.467 147.667 145.196C140.389 147.924 136.701 156.036 139.429 163.313C142.158 170.591 150.269 174.279 157.547 171.551Z" fill="#2E5CFF"/>
<path d="M164.876 168.19C169.914 162.271 169.199 153.389 163.28 148.351C157.361 143.314 148.479 144.028 143.441 149.948C138.404 155.867 139.118 164.749 145.038 169.786C150.957 174.824 159.839 174.109 164.876 168.19Z" fill="#2E5CFF"/>
<path opacity="0.4" d="M164.876 168.19C169.914 162.271 169.199 153.389 163.28 148.351C157.361 143.314 148.479 144.028 143.441 149.948C138.404 155.867 139.118 164.749 145.038 169.786C150.957 174.824 159.839 174.109 164.876 168.19Z" fill="white"/>
<path d="M163.747 163.402C162.884 165.297 161.479 166.893 159.709 167.99C157.939 169.086 155.884 169.633 153.803 169.562C151.722 169.49 149.709 168.804 148.019 167.588C146.328 166.373 145.036 164.684 144.305 162.734C143.574 160.785 143.438 158.662 143.913 156.635C144.389 154.608 145.454 152.767 146.975 151.346C148.497 149.924 150.405 148.986 152.46 148.648C154.514 148.311 156.623 148.591 158.519 149.452C161.061 150.61 163.04 152.729 164.02 155.345C165 157.961 164.902 160.859 163.747 163.402Z" fill="#2E5CFF"/>
<path opacity="0.3" d="M159.042 162.169C158.88 161.528 158.521 160.953 158.015 160.526C158.553 160.503 159.073 160.329 159.515 160.022C159.964 159.714 160.319 159.287 160.542 158.79C160.736 158.388 160.826 157.945 160.804 157.5C160.783 157.055 160.65 156.623 160.419 156.242C159.978 155.548 159.366 154.978 158.642 154.588L159.001 153.797L157.789 153.253L157.46 153.982L156.248 153.427L156.577 152.698L155.365 152.143L155.036 152.883L152.406 151.681L147.476 162.539L150.095 163.741L149.746 164.511L150.958 165.056L151.307 164.285L152.519 164.84L152.17 165.611L153.382 166.155L153.752 165.354C154.666 165.764 155.675 165.917 156.669 165.795C157.126 165.711 157.554 165.512 157.913 165.217C158.273 164.923 158.551 164.542 158.724 164.111C159.047 163.518 159.159 162.834 159.042 162.169ZM154.071 154.711L156.567 155.852C157.071 156.042 157.51 156.373 157.83 156.807C157.934 156.985 157.989 157.187 157.989 157.393C157.989 157.598 157.934 157.8 157.83 157.978C157.759 158.173 157.637 158.345 157.476 158.475C157.315 158.605 157.121 158.689 156.916 158.718C156.376 158.773 155.833 158.666 155.355 158.41L152.858 157.269L154.071 154.711ZM155.426 163.474C154.856 163.512 154.286 163.387 153.783 163.114L150.855 161.789L152.067 159.098L155.005 160.433C156.33 161.039 156.793 161.799 156.392 162.693C156.321 162.905 156.193 163.093 156.023 163.238C155.853 163.383 155.647 163.478 155.426 163.515V163.474Z" fill="white"/>
<path d="M286.801 238.73C286.483 240.014 282.127 240.024 277.073 238.73C272.019 237.436 268.177 235.392 268.496 234.118C268.814 232.844 273.18 232.823 278.234 234.118C283.288 235.412 287.11 237.477 286.801 238.73Z" fill="#2E5CFF"/>
<path d="M269.088 231.836L268.507 234.158L286.812 238.742L287.394 236.42L269.088 231.836Z" fill="#2E5CFF"/>
<path d="M287.387 236.45C287.058 237.734 282.703 237.744 277.649 236.45C272.594 235.155 268.763 233.121 269.081 231.837C269.4 230.553 273.755 230.543 278.809 231.837C283.863 233.132 287.705 235.135 287.387 236.45Z" fill="#2E5CFF"/>
<path opacity="0.4" d="M287.387 236.45C287.058 237.734 282.703 237.744 277.649 236.45C272.594 235.155 268.763 233.121 269.081 231.837C269.4 230.553 273.755 230.543 278.809 231.837C283.863 233.132 287.705 235.135 287.387 236.45Z" fill="white"/>
<path d="M286.236 236.028C286.227 236.071 286.21 236.111 286.185 236.146C286.161 236.181 286.129 236.211 286.093 236.234C285.712 235.309 282.538 233.892 278.542 232.895C274.546 231.899 271.064 231.642 270.324 232.279C270.304 232.198 270.304 232.113 270.324 232.032C270.55 231.159 274.3 231.344 278.717 232.443C283.134 233.542 286.462 235.166 286.236 236.028Z" fill="#2E5CFF"/>
<path opacity="0.4" d="M286.236 236.028C286.227 236.071 286.21 236.111 286.185 236.146C286.161 236.181 286.129 236.211 286.093 236.234C285.712 235.309 282.538 233.892 278.542 232.895C274.546 231.899 271.064 231.642 270.324 232.279C270.304 232.198 270.304 232.113 270.324 232.032C270.55 231.159 274.3 231.344 278.717 232.443C283.134 233.542 286.462 235.166 286.236 236.028Z" fill="#2E5CFF"/>
<path opacity="0.4" d="M286.082 236.234C285.312 236.86 281.85 236.614 277.864 235.618C273.878 234.621 270.673 233.193 270.304 232.279C271.074 231.642 274.536 231.889 278.522 232.895C282.507 233.902 285.712 235.309 286.082 236.234Z" fill="#2E5CFF"/>
<path d="M295.595 242.942C295.656 244.257 291.486 245.51 286.267 245.726C281.049 245.941 276.796 245.058 276.745 243.743C276.693 242.428 280.854 241.175 286.072 240.949C291.29 240.723 295.543 241.586 295.595 242.942Z" fill="#2E5CFF"/>
<path d="M295.472 240.572L276.619 241.372L276.72 243.764L295.574 242.964L295.472 240.572Z" fill="#2E5CFF"/>
<path d="M295.492 240.559C295.553 241.884 291.383 243.127 286.175 243.353C280.967 243.579 276.703 242.685 276.642 241.36C276.58 240.035 280.751 238.792 285.969 238.576C291.188 238.36 295.44 239.233 295.492 240.559Z" fill="#2E5CFF"/>
<path opacity="0.4" d="M295.492 240.559C295.553 241.884 291.383 243.127 286.175 243.353C280.967 243.579 276.703 242.685 276.642 241.36C276.58 240.035 280.751 238.792 285.969 238.576C291.188 238.36 295.44 239.233 295.492 240.559Z" fill="white"/>
<path d="M294.3 240.559C294.304 240.602 294.299 240.645 294.285 240.686C294.271 240.727 294.248 240.764 294.218 240.795C293.591 240.024 290.109 239.562 286 239.768C281.891 239.973 278.47 240.692 277.916 241.514C277.859 241.452 277.826 241.372 277.823 241.288C277.823 240.394 281.429 239.501 285.979 239.305C290.53 239.11 294.3 239.614 294.3 240.559Z" fill="#2E5CFF"/>
<path opacity="0.4" d="M294.3 240.559C294.304 240.602 294.299 240.645 294.285 240.686C294.271 240.727 294.248 240.764 294.218 240.795C293.591 240.024 290.109 239.562 286 239.768C281.891 239.973 278.47 240.692 277.916 241.514C277.859 241.452 277.826 241.372 277.823 241.288C277.823 240.394 281.429 239.501 285.979 239.305C290.53 239.11 294.3 239.614 294.3 240.559Z" fill="#2E5CFF"/>
<path opacity="0.4" d="M294.208 240.743C293.653 241.565 290.253 242.315 286.134 242.49C282.014 242.664 278.563 242.212 277.916 241.463C278.47 240.641 281.871 239.891 286 239.716C290.13 239.542 293.581 239.973 294.208 240.743Z" fill="#2E5CFF"/>
<path d="M285.673 238.235C289.938 231.737 288.128 223.012 281.63 218.747C275.133 214.482 266.408 216.292 262.143 222.79C257.878 229.288 259.688 238.013 266.185 242.278C272.683 246.543 281.408 244.732 285.673 238.235Z" fill="#2E5CFF"/>
<path d="M285.692 241.052C283.84 243.13 281.413 244.612 278.719 245.311C276.024 246.01 273.183 245.894 270.555 244.978C267.926 244.062 265.628 242.387 263.951 240.165C262.275 237.943 261.295 235.274 261.135 232.495C260.976 229.716 261.644 226.952 263.055 224.553C264.467 222.153 266.558 220.227 269.064 219.016C271.571 217.805 274.38 217.365 277.137 217.751C279.894 218.137 282.474 219.332 284.552 221.185C287.337 223.668 289.022 227.156 289.235 230.882C289.449 234.608 288.175 238.266 285.692 241.052Z" fill="#2E5CFF"/>
<path opacity="0.4" d="M285.692 241.052C283.84 243.13 281.413 244.612 278.719 245.311C276.024 246.01 273.183 245.894 270.555 244.978C267.926 244.062 265.628 242.387 263.951 240.165C262.275 237.943 261.295 235.274 261.135 232.495C260.976 229.716 261.644 226.952 263.055 224.553C264.467 222.153 266.558 220.227 269.064 219.016C271.571 217.805 274.38 217.365 277.137 217.751C279.894 218.137 282.474 219.332 284.552 221.185C287.337 223.668 289.022 227.156 289.235 230.882C289.449 234.608 288.175 238.266 285.692 241.052Z" fill="white"/>
<path d="M283 238.699C281.614 240.256 279.796 241.367 277.778 241.89C275.76 242.414 273.632 242.327 271.663 241.642C269.694 240.956 267.973 239.701 266.717 238.037C265.462 236.373 264.728 234.373 264.608 232.292C264.489 230.21 264.99 228.14 266.047 226.343C267.105 224.546 268.671 223.104 270.549 222.197C272.426 221.291 274.531 220.962 276.595 221.251C278.66 221.541 280.592 222.437 282.148 223.825C283.181 224.745 284.023 225.86 284.625 227.106C285.227 228.352 285.578 229.704 285.657 231.085C285.736 232.467 285.543 233.85 285.087 235.157C284.631 236.463 283.922 237.667 283 238.699Z" fill="#2E5CFF"/>
<g opacity="0.3">
<path d="M277.145 236.45C275.892 238.504 273.663 238.555 271.352 236.819L270.037 238.227L268.722 237.066L270.047 235.659C268.993 234.575 268.208 233.259 267.756 231.817L269.811 230.718C270.147 231.937 270.766 233.06 271.619 233.995L273.673 231.837C272.718 230.338 271.732 228.581 272.862 226.752C274.105 224.749 276.375 224.698 278.707 226.455L280.032 225.047L281.336 226.218L280.011 227.636C280.832 228.502 281.468 229.526 281.881 230.646L279.919 231.796C279.62 230.859 279.122 229.997 278.46 229.269L276.354 231.529C277.258 233.008 278.214 234.703 277.145 236.45ZM275.337 230.009L277.063 228.17C276.21 227.667 275.502 227.759 275.132 228.324C275.017 228.597 274.975 228.895 275.011 229.189C275.047 229.482 275.16 229.762 275.337 229.999V230.009ZM274.783 234.96C274.894 234.703 274.935 234.421 274.9 234.143C274.866 233.864 274.758 233.601 274.587 233.378L272.944 235.124C273.755 235.576 274.423 235.515 274.783 234.95V234.96Z" fill="white"/>
</g>
<path d="M100.952 244.246C100.9 245.561 105.061 246.815 110.279 247.03C115.497 247.246 119.75 246.363 119.802 245.048C119.853 243.733 115.693 242.48 110.484 242.254C105.276 242.028 101.013 242.921 100.952 244.246Z" fill="#2E5CFF"/>
<path d="M101.06 241.863L100.959 244.255L119.813 245.055L119.914 242.663L101.06 241.863Z" fill="#2E5CFF"/>
<path d="M101.054 241.853C100.993 243.178 105.163 244.421 110.382 244.647C115.6 244.873 119.853 243.979 119.904 242.654C119.956 241.329 115.795 240.086 110.577 239.87C105.358 239.655 101.106 240.559 101.054 241.853Z" fill="#2E5CFF"/>
<path opacity="0.4" d="M101.054 241.853C100.993 243.178 105.163 244.421 110.382 244.647C115.6 244.873 119.853 243.979 119.904 242.654C119.956 241.329 115.795 240.086 110.577 239.87C105.358 239.655 101.106 240.559 101.054 241.853Z" fill="white"/>
<path d="M102.256 241.812C102.257 241.898 102.286 241.981 102.338 242.048C102.965 241.278 106.447 240.815 110.556 241.021C114.665 241.226 118.076 241.945 118.63 242.778C118.689 242.712 118.725 242.629 118.733 242.541C118.733 241.648 115.117 240.754 110.577 240.569C106.036 240.384 102.297 240.918 102.256 241.812Z" fill="#2E5CFF"/>
<path opacity="0.4" d="M102.256 241.812C102.257 241.898 102.286 241.981 102.338 242.048C102.965 241.278 106.447 240.815 110.556 241.021C114.665 241.226 118.076 241.945 118.63 242.778C118.689 242.712 118.725 242.629 118.733 242.541C118.733 241.648 115.117 240.754 110.577 240.569C106.036 240.384 102.297 240.918 102.256 241.812Z" fill="#2E5CFF"/>
<path opacity="0.4" d="M102.338 242.048C102.903 242.88 106.293 243.62 110.412 243.794C114.532 243.969 117.994 243.517 118.63 242.767C118.076 241.935 114.686 241.196 110.556 241.011C106.427 240.826 102.965 241.278 102.338 242.048Z" fill="#2E5CFF"/>
<path d="M98.9689 240.631C98.9689 241.945 103.078 243.199 108.296 243.414C113.515 243.63 117.768 242.747 117.819 241.432C117.87 240.117 113.71 238.864 108.502 238.638C103.294 238.412 99.0306 239.316 98.9689 240.631Z" fill="#2E5CFF"/>
<path d="M99.0586 238.216L98.9571 240.607L117.811 241.407L117.912 239.016L99.0586 238.216Z" fill="#2E5CFF"/>
<path d="M99.123 238.237C99.123 239.562 103.232 240.805 108.45 241.031C113.669 241.257 117.922 240.363 117.973 239.038C118.024 237.713 113.864 236.47 108.656 236.254C103.448 236.039 99.123 236.922 99.123 238.237Z" fill="#2E5CFF"/>
<path opacity="0.4" d="M99.123 238.237C99.123 239.562 103.232 240.805 108.45 241.031C113.669 241.257 117.922 240.363 117.973 239.038C118.024 237.713 113.864 236.47 108.656 236.254C103.448 236.039 99.123 236.922 99.123 238.237Z" fill="white"/>
<path d="M100.273 238.196C100.274 238.282 100.303 238.365 100.356 238.432C100.982 237.662 104.465 237.21 108.574 237.405C112.683 237.6 116.093 238.319 116.648 239.151C116.707 239.086 116.743 239.003 116.751 238.915C116.751 238.032 113.135 237.128 108.594 236.943C104.054 236.758 100.315 237.302 100.273 238.196Z" fill="#2E5CFF"/>
<path opacity="0.4" d="M100.273 238.196C100.274 238.282 100.303 238.365 100.356 238.432C100.982 237.662 104.465 237.21 108.574 237.405C112.683 237.6 116.093 238.319 116.648 239.151C116.707 239.086 116.743 239.003 116.751 238.915C116.751 238.032 113.135 237.128 108.594 236.943C104.054 236.758 100.315 237.302 100.273 238.196Z" fill="#2E5CFF"/>
<path opacity="0.4" d="M100.356 238.432C100.921 239.264 104.311 240.004 108.43 240.179C112.549 240.353 116.011 239.901 116.648 239.151C116.093 238.319 112.703 237.58 108.574 237.405C104.444 237.23 100.982 237.662 100.356 238.432Z" fill="#2E5CFF"/>
<path d="M99.2258 236.275C99.2258 237.59 103.335 238.843 108.553 239.059C113.772 239.275 118.024 238.391 118.076 237.076C118.127 235.761 113.967 234.508 108.759 234.282C103.55 234.056 99.2874 234.96 99.2258 236.275Z" fill="#2E5CFF"/>
<path d="M99.3097 233.86L99.2082 236.252L118.062 237.052L118.163 234.661L99.3097 233.86Z" fill="#2E5CFF"/>
<path d="M99.3284 233.882C99.3284 235.207 103.437 236.45 108.656 236.676C113.874 236.902 118.127 236.008 118.178 234.683C118.23 233.358 114.069 232.115 108.861 231.899C103.653 231.683 99.3901 232.567 99.3284 233.882Z" fill="#2E5CFF"/>
<path opacity="0.4" d="M99.3284 233.882C99.3284 235.207 103.437 236.45 108.656 236.676C113.874 236.902 118.127 236.008 118.178 234.683C118.23 233.358 114.069 232.115 108.861 231.899C103.653 231.683 99.3901 232.567 99.3284 233.882Z" fill="white"/>
<path d="M100.53 233.84C100.531 233.926 100.56 234.009 100.613 234.077C101.239 233.306 104.722 232.854 108.831 233.049C112.939 233.245 116.35 233.964 116.905 234.796C116.963 234.73 116.999 234.647 117.007 234.559C117.007 233.676 113.391 232.772 108.851 232.587C104.311 232.402 100.571 232.957 100.53 233.84Z" fill="#2E5CFF"/>
<path opacity="0.4" d="M100.53 233.84C100.531 233.926 100.56 234.009 100.613 234.077C101.239 233.306 104.722 232.854 108.831 233.049C112.939 233.245 116.35 233.964 116.905 234.796C116.963 234.73 116.999 234.647 117.007 234.559C117.007 233.676 113.391 232.772 108.851 232.587C104.311 232.402 100.571 232.957 100.53 233.84Z" fill="#2E5CFF"/>
<path opacity="0.4" d="M100.612 234.077C101.177 234.909 104.567 235.648 108.687 235.823C112.806 235.998 116.268 235.546 116.905 234.796C116.35 233.964 112.96 233.224 108.83 233.049C104.701 232.875 101.239 233.306 100.612 234.077Z" fill="#2E5CFF"/>
<path d="M97.2432 232.659C97.2432 233.974 101.352 235.227 106.571 235.443C111.789 235.659 116.042 234.775 116.103 233.46C116.165 232.145 111.994 230.892 106.776 230.666C101.558 230.44 97.3048 231.313 97.2432 232.659Z" fill="#2E5CFF"/>
<path d="M97.3392 230.254L97.2377 232.645L116.091 233.445L116.193 231.054L97.3392 230.254Z" fill="#2E5CFF"/>
<path d="M97.3459 230.286C97.2945 231.611 101.455 232.854 106.673 233.08C111.892 233.306 116.145 232.413 116.196 231.087C116.247 229.762 112.087 228.53 106.879 228.304C101.671 228.078 97.4075 228.951 97.3459 230.286Z" fill="#2E5CFF"/>
<path opacity="0.4" d="M97.3459 230.286C97.2945 231.611 101.455 232.854 106.673 233.08C111.892 233.306 116.145 232.413 116.196 231.087C116.247 229.762 112.087 228.53 106.879 228.304C101.671 228.078 97.4075 228.951 97.3459 230.286Z" fill="white"/>
<path d="M98.5477 230.224C98.5485 230.31 98.5773 230.393 98.6299 230.461C99.2668 229.69 102.739 229.238 106.848 229.434C110.957 229.629 114.378 230.348 114.922 231.18C114.983 231.12 115.019 231.039 115.025 230.954C115.025 230.06 111.409 229.156 106.868 228.971C102.328 228.786 98.5888 229.341 98.5477 230.224Z" fill="#2E5CFF"/>
<path opacity="0.4" d="M98.5477 230.224C98.5485 230.31 98.5773 230.393 98.6299 230.461C99.2668 229.69 102.739 229.238 106.848 229.434C110.957 229.629 114.378 230.348 114.922 231.18C114.983 231.12 115.019 231.039 115.025 230.954C115.025 230.06 111.409 229.156 106.868 228.971C102.328 228.786 98.5888 229.341 98.5477 230.224Z" fill="#2E5CFF"/>
<path opacity="0.4" d="M98.6299 230.461C99.1949 231.293 102.585 232.032 106.704 232.207C110.823 232.382 114.285 231.93 114.922 231.18C114.378 230.348 110.977 229.608 106.848 229.434C102.718 229.259 99.2668 229.69 98.6299 230.461Z" fill="#2E5CFF"/>
<path d="M100.274 229.598C100.212 230.913 104.383 232.166 109.601 232.382C114.819 232.597 119.072 231.714 119.124 230.399C119.175 229.084 115.015 227.831 109.796 227.605C104.578 227.379 100.325 228.232 100.274 229.598Z" fill="#2E5CFF"/>
<path d="M100.357 227.179L100.255 229.57L119.109 230.37L119.21 227.979L100.357 227.179Z" fill="#2E5CFF"/>
<path d="M100.376 227.204C100.315 228.53 104.485 229.773 109.693 229.999C114.901 230.225 119.165 229.331 119.226 228.006C119.288 226.68 115.117 225.438 109.899 225.222C104.68 225.006 100.428 225.89 100.376 227.204Z" fill="#2E5CFF"/>
<path opacity="0.4" d="M100.376 227.204C100.315 228.53 104.485 229.773 109.693 229.999C114.901 230.225 119.165 229.331 119.226 228.006C119.288 226.68 115.117 225.438 109.899 225.222C104.68 225.006 100.428 225.89 100.376 227.204Z" fill="white"/>
<path d="M101.578 227.204C101.574 227.247 101.579 227.291 101.593 227.332C101.607 227.372 101.63 227.41 101.66 227.441C102.287 226.67 105.769 226.208 109.878 226.413C113.987 226.619 117.408 227.338 117.963 228.16C118.02 228.098 118.053 228.018 118.055 227.934C118.055 227.04 114.45 226.146 109.899 225.951C105.348 225.756 101.609 226.27 101.578 227.204Z" fill="#2E5CFF"/>
<path opacity="0.4" d="M101.578 227.204C101.574 227.247 101.579 227.291 101.593 227.332C101.607 227.372 101.63 227.41 101.66 227.441C102.287 226.67 105.769 226.208 109.878 226.413C113.987 226.619 117.408 227.338 117.963 228.16C118.02 228.098 118.053 228.018 118.055 227.934C118.055 227.04 114.45 226.146 109.899 225.951C105.348 225.756 101.609 226.27 101.578 227.204Z" fill="#2E5CFF"/>
<path opacity="0.4" d="M101.66 227.4C102.215 228.221 105.615 228.971 109.734 229.146C113.854 229.321 117.305 228.869 117.952 228.119C117.398 227.297 113.998 226.547 109.868 226.372C105.738 226.198 102.287 226.629 101.66 227.4Z" fill="#2E5CFF"/>
<path d="M86.9809 244.031C87.2994 245.315 91.6652 245.325 96.7192 244.031C101.773 242.736 105.605 240.702 105.286 239.418C104.968 238.134 100.613 238.124 95.5584 239.418C90.5044 240.713 86.6625 242.757 86.9809 244.031Z" fill="#2E5CFF"/>
<path d="M104.71 237.126L86.4045 241.71L86.986 244.032L105.291 239.448L104.71 237.126Z" fill="#2E5CFF"/>
<path d="M86.4057 241.719C86.7241 242.993 91.0797 243.014 96.1337 241.719C101.188 240.425 105.03 238.391 104.701 237.117C104.372 235.844 100.027 235.823 94.973 237.117C89.9189 238.412 86.077 240.435 86.4057 241.719Z" fill="#2E5CFF"/>
<path opacity="0.4" d="M86.4057 241.719C86.7241 242.993 91.0797 243.014 96.1337 241.719C101.188 240.425 105.03 238.391 104.701 237.117C104.372 235.844 100.027 235.823 94.973 237.117C89.9189 238.412 86.077 240.435 86.4057 241.719Z" fill="white"/>
<path d="M87.5459 241.339C87.5682 241.42 87.6194 241.489 87.6897 241.535C88.0698 240.62 91.244 239.203 95.2503 238.196C99.2566 237.189 102.718 236.943 103.468 237.58C103.499 237.5 103.499 237.412 103.468 237.333C103.253 236.47 99.4928 236.645 95.0859 237.754C90.6791 238.864 87.3302 240.466 87.5459 241.339Z" fill="#2E5CFF"/>
<path opacity="0.4" d="M87.5459 241.339C87.5682 241.42 87.6194 241.489 87.6897 241.535C88.0698 240.62 91.244 239.203 95.2503 238.196C99.2566 237.189 102.718 236.943 103.468 237.58C103.499 237.5 103.499 237.412 103.468 237.333C103.253 236.47 99.4928 236.645 95.0859 237.754C90.6791 238.864 87.3302 240.466 87.5459 241.339Z" fill="#2E5CFF"/>
<path opacity="0.4" d="M87.6897 241.586C88.4601 242.223 91.9322 241.976 95.9077 240.969C99.8831 239.963 103.098 238.555 103.468 237.631C102.698 236.994 99.236 237.251 95.2502 238.247C91.2645 239.244 88.0698 240.62 87.6897 241.586Z" fill="#2E5CFF"/>
<path d="M78.239 244.246C78.239 245.561 82.348 246.815 87.5665 247.03C92.7849 247.246 97.0377 246.363 97.0891 245.048C97.1404 243.733 92.9801 242.48 87.7719 242.254C82.5638 242.028 78.3007 242.921 78.239 244.246Z" fill="#2E5CFF"/>
<path d="M78.33 241.833L78.2285 244.224L97.0821 245.024L97.1836 242.633L78.33 241.833Z" fill="#2E5CFF"/>
<path d="M78.3418 241.853C78.2904 243.178 82.4508 244.421 87.6692 244.647C92.8876 244.873 97.1404 243.979 97.1918 242.654C97.2431 241.329 93.0828 240.086 87.8746 239.87C82.6665 239.655 78.4034 240.559 78.3418 241.853Z" fill="#2E5CFF"/>
<path opacity="0.4" d="M78.3418 241.853C78.2904 243.178 82.4508 244.421 87.6692 244.647C92.8876 244.873 97.1404 243.979 97.1918 242.654C97.2431 241.329 93.0828 240.086 87.8746 239.87C82.6665 239.655 78.4034 240.559 78.3418 241.853Z" fill="white"/>
<path d="M79.5436 241.812C79.5444 241.898 79.5733 241.981 79.6258 242.048C80.2524 241.278 83.7348 240.815 87.8438 241.021C91.9528 241.226 95.3633 241.945 95.918 242.778C95.9767 242.712 96.0127 242.629 96.0207 242.541C96.0207 241.648 92.4048 240.754 87.8643 240.569C83.3239 240.384 79.6053 240.918 79.5436 241.812Z" fill="#2E5CFF"/>
<path opacity="0.4" d="M79.5436 241.812C79.5444 241.898 79.5733 241.981 79.6258 242.048C80.2524 241.278 83.7348 240.815 87.8438 241.021C91.9528 241.226 95.3633 241.945 95.918 242.778C95.9767 242.712 96.0127 242.629 96.0207 242.541C96.0207 241.648 92.4048 240.754 87.8643 240.569C83.3239 240.384 79.6053 240.918 79.5436 241.812Z" fill="#2E5CFF"/>
<path opacity="0.4" d="M79.6053 242.048C80.1703 242.88 83.5602 243.62 87.6795 243.794C91.7988 243.969 95.2606 243.517 95.8975 242.767C95.3428 241.935 91.9528 241.196 87.8233 241.011C83.6938 240.826 80.2525 241.278 79.6053 242.048Z" fill="#2E5CFF"/>
<path d="M175.612 244.133C175.55 245.489 179.844 246.773 185.196 246.999C190.548 247.225 194.934 246.311 194.996 244.945C195.058 243.579 190.754 242.315 185.402 242.079C180.05 241.843 175.663 242.778 175.612 244.133Z" fill="#2E5CFF"/>
<path d="M175.694 241.647L175.59 244.1L194.978 244.923L195.082 242.47L175.694 241.647Z" fill="#2E5CFF"/>
<path d="M175.715 241.678C175.653 243.034 179.947 244.318 185.299 244.544C190.651 244.77 195.037 243.856 195.099 242.49C195.16 241.124 190.867 239.86 185.504 239.624C180.142 239.388 175.766 240.322 175.715 241.678Z" fill="#2E5CFF"/>
<path opacity="0.4" d="M175.715 241.678C175.653 243.034 179.947 244.318 185.299 244.544C190.651 244.77 195.037 243.856 195.099 242.49C195.16 241.124 190.867 239.86 185.504 239.624C180.142 239.388 175.766 240.322 175.715 241.678Z" fill="white"/>
<path d="M176.947 241.637C176.949 241.726 176.978 241.812 177.03 241.884C177.677 241.082 181.221 240.62 185.463 240.795C189.706 240.969 193.198 241.74 193.763 242.593C193.826 242.53 193.863 242.445 193.866 242.356C193.866 241.442 190.158 240.517 185.484 240.302C180.81 240.086 176.988 240.723 176.947 241.637Z" fill="#2E5CFF"/>
<path opacity="0.4" d="M176.947 241.637C176.949 241.726 176.978 241.812 177.03 241.884C177.677 241.082 181.221 240.62 185.463 240.795C189.706 240.969 193.198 241.74 193.763 242.593C193.826 242.53 193.863 242.445 193.866 242.356C193.866 241.442 190.158 240.517 185.484 240.302C180.81 240.086 176.988 240.723 176.947 241.637Z" fill="#2E5CFF"/>
<path opacity="0.4" d="M177.03 241.884C177.615 242.726 181.139 243.497 185.34 243.681C189.541 243.866 193.127 243.394 193.763 242.593C193.198 241.74 189.706 240.98 185.463 240.795C181.221 240.61 177.677 241.083 177.03 241.884Z" fill="#2E5CFF"/>
<path d="M173.568 240.415C173.516 241.771 177.81 243.055 183.162 243.291C188.514 243.527 192.901 242.603 192.952 241.237C193.003 239.87 188.72 238.597 183.368 238.36C178.016 238.124 173.629 239.059 173.568 240.415Z" fill="#2E5CFF"/>
<path d="M173.669 237.954L173.565 240.407L192.953 241.229L193.057 238.777L173.669 237.954Z" fill="#2E5CFF"/>
<path d="M173.681 237.96C173.619 239.316 177.913 240.6 183.265 240.836C188.617 241.072 193.003 240.148 193.065 238.781C193.127 237.415 188.822 236.141 183.47 235.905C178.118 235.669 173.732 236.604 173.681 237.96Z" fill="#2E5CFF"/>
<path opacity="0.4" d="M173.681 237.96C173.619 239.316 177.913 240.6 183.265 240.836C188.617 241.072 193.003 240.148 193.065 238.781C193.127 237.415 188.822 236.141 183.47 235.905C178.118 235.669 173.732 236.604 173.681 237.96Z" fill="white"/>
<path d="M174.913 237.919C174.915 238.007 174.944 238.093 174.996 238.165C175.643 237.364 179.187 236.902 183.419 237.076C187.651 237.251 191.164 238.021 191.729 238.874C191.788 238.808 191.824 238.725 191.832 238.638C191.832 237.723 188.114 236.799 183.44 236.583C178.766 236.367 174.954 237.004 174.913 237.919Z" fill="#2E5CFF"/>
<path opacity="0.4" d="M174.913 237.919C174.915 238.007 174.944 238.093 174.996 238.165C175.643 237.364 179.187 236.902 183.419 237.076C187.651 237.251 191.164 238.021 191.729 238.874C191.788 238.808 191.824 238.725 191.832 238.638C191.832 237.723 188.114 236.799 183.44 236.583C178.766 236.367 174.954 237.004 174.913 237.919Z" fill="#2E5CFF"/>
<path opacity="0.4" d="M174.996 238.165C175.571 239.007 179.105 239.778 183.296 239.963C187.487 240.148 191.093 239.675 191.729 238.874C191.165 238.021 187.672 237.261 183.419 237.076C179.166 236.891 175.643 237.364 174.996 238.165Z" fill="#2E5CFF"/>
<path d="M177.944 237.672C177.882 239.018 182.176 240.302 187.528 240.538C192.88 240.774 197.266 239.85 197.328 238.484C197.39 237.117 193.085 235.844 187.733 235.618C182.381 235.392 177.995 236.316 177.944 237.672Z" fill="#2E5CFF"/>
<path d="M178.028 235.191L177.924 237.644L197.311 238.466L197.415 236.014L178.028 235.191Z" fill="#2E5CFF"/>
<path d="M178.046 235.207C177.985 236.563 182.279 237.847 187.631 238.083C192.983 238.319 197.369 237.395 197.431 236.028C197.492 234.662 193.188 233.388 187.836 233.162C182.484 232.936 178.098 233.861 178.046 235.207Z" fill="#2E5CFF"/>
<path opacity="0.4" d="M178.046 235.207C177.985 236.563 182.279 237.847 187.631 238.083C192.983 238.319 197.369 237.395 197.431 236.028C197.492 234.662 193.188 233.388 187.836 233.162C182.484 232.936 178.098 233.861 178.046 235.207Z" fill="white"/>
<path d="M179.248 235.166C179.25 235.254 179.279 235.34 179.331 235.412C179.978 234.611 183.522 234.149 187.754 234.323C191.986 234.498 195.499 235.268 196.064 236.121C196.123 236.055 196.159 235.972 196.167 235.885C196.167 234.97 192.449 234.046 187.775 233.83C183.101 233.614 179.32 234.251 179.248 235.166Z" fill="#2E5CFF"/>
<path opacity="0.4" d="M179.248 235.166C179.25 235.254 179.279 235.34 179.331 235.412C179.978 234.611 183.522 234.149 187.754 234.323C191.986 234.498 195.499 235.268 196.064 236.121C196.123 236.055 196.159 235.972 196.167 235.885C196.167 234.97 192.449 234.046 187.775 233.83C183.101 233.614 179.32 234.251 179.248 235.166Z" fill="#2E5CFF"/>
<path opacity="0.4" d="M179.361 235.422C179.937 236.275 183.47 237.035 187.662 237.22C191.853 237.405 195.458 236.932 196.095 236.131C195.53 235.279 192.038 234.518 187.785 234.334C183.532 234.149 180.009 234.611 179.361 235.422Z" fill="#2E5CFF"/>
<path d="M177.995 233.953C177.934 235.309 182.227 236.593 187.579 236.819C192.931 237.045 197.318 236.131 197.379 234.765C197.441 233.399 193.137 232.125 187.785 231.899C182.433 231.673 178.047 232.597 177.995 233.953Z" fill="#2E5CFF"/>
<path d="M177.726 230.228L177.628 232.683L197.033 233.459L197.131 231.004L177.726 230.228Z" fill="#2E5CFF"/>
<path d="M178.098 231.498C178.036 232.854 182.33 234.138 187.682 234.364C193.034 234.59 197.42 233.676 197.482 232.31C197.544 230.944 193.24 229.67 187.888 229.444C182.536 229.218 178.149 230.142 178.098 231.498Z" fill="#2E5CFF"/>
<path opacity="0.4" d="M178.098 231.498C178.036 232.854 182.33 234.138 187.682 234.364C193.034 234.59 197.42 233.676 197.482 232.31C197.544 230.944 193.24 229.67 187.888 229.444C182.536 229.218 178.149 230.142 178.098 231.498Z" fill="white"/>
<path d="M179.331 231.457C179.333 231.543 179.361 231.625 179.413 231.693C180.06 230.892 183.604 230.43 187.836 230.605C192.068 230.779 195.582 231.56 196.147 232.402C196.21 232.339 196.246 232.255 196.249 232.166C196.249 231.252 192.541 230.327 187.857 230.111C183.172 229.896 179.372 230.533 179.331 231.457Z" fill="#2E5CFF"/>
<path opacity="0.4" d="M179.331 231.457C179.333 231.543 179.361 231.625 179.413 231.693C180.06 230.892 183.604 230.43 187.836 230.605C192.068 230.779 195.582 231.56 196.147 232.402C196.21 232.339 196.246 232.255 196.249 232.166C196.249 231.252 192.541 230.327 187.857 230.111C183.172 229.896 179.372 230.533 179.331 231.457Z" fill="#2E5CFF"/>
<path opacity="0.4" d="M179.413 231.693C179.988 232.546 183.522 233.306 187.723 233.491C191.925 233.676 195.51 233.203 196.147 232.402C195.582 231.56 192.089 230.789 187.836 230.605C183.583 230.42 180.06 230.892 179.413 231.693Z" fill="#2E5CFF"/>
<path d="M174.009 230.913C173.948 232.269 178.242 233.553 183.594 233.779C188.946 234.005 193.332 233.09 193.394 231.724C193.455 230.358 189.161 229.084 183.809 228.858C178.457 228.632 174.112 229.557 174.009 230.913Z" fill="#2E5CFF"/>
<path d="M174.126 228.481L174.021 230.934L193.408 231.76L193.513 229.307L174.126 228.481Z" fill="#2E5CFF"/>
<path d="M174.112 228.458C174.051 229.814 178.344 231.098 183.696 231.324C189.048 231.55 193.435 230.635 193.496 229.269C193.558 227.903 189.264 226.629 183.912 226.403C178.56 226.177 174.174 227.102 174.112 228.458Z" fill="#2E5CFF"/>
<path opacity="0.4" d="M174.112 228.458C174.051 229.814 178.344 231.098 183.696 231.324C189.048 231.55 193.435 230.635 193.496 229.269C193.558 227.903 189.264 226.629 183.912 226.403C178.56 226.177 174.174 227.102 174.112 228.458Z" fill="white"/>
<path d="M175.345 228.417C175.347 228.502 175.376 228.584 175.427 228.653C176.084 227.862 179.628 227.389 183.861 227.574C188.093 227.759 191.596 228.519 192.161 229.362C192.223 229.303 192.26 229.221 192.264 229.136C192.264 228.211 188.555 227.297 183.881 227.081C179.207 226.865 175.386 227.492 175.345 228.417Z" fill="#2E5CFF"/>
<path opacity="0.4" d="M175.345 228.417C175.347 228.502 175.376 228.584 175.427 228.653C176.084 227.862 179.628 227.389 183.861 227.574C188.093 227.759 191.596 228.519 192.161 229.362C192.223 229.303 192.26 229.221 192.264 229.136C192.264 228.211 188.555 227.297 183.881 227.081C179.207 226.865 175.386 227.492 175.345 228.417Z" fill="#2E5CFF"/>
<path opacity="0.4" d="M175.427 228.653C176.013 229.505 179.536 230.276 183.737 230.45C187.939 230.625 191.524 230.163 192.161 229.362C191.596 228.519 188.103 227.749 183.861 227.574C179.618 227.4 176.084 227.862 175.427 228.653Z" fill="#2E5CFF"/>
<path d="M199.033 238.309C198.468 239.511 201.838 242.274 206.553 244.472C211.268 246.671 215.551 247.554 216.106 246.321C216.661 245.089 213.302 242.367 208.587 240.158C203.872 237.949 199.588 237.117 199.033 238.309Z" fill="#2E5CFF"/>
<path d="M200.054 236.182L199.036 238.348L216.114 246.374L217.132 244.207L200.054 236.182Z" fill="#2E5CFF"/>
<path d="M200.05 236.152C199.485 237.343 202.855 240.107 207.57 242.315C212.285 244.524 216.568 245.397 217.123 244.164C217.678 242.932 214.319 240.199 209.604 238.001C204.888 235.802 200.605 234.95 200.05 236.152Z" fill="#2E5CFF"/>
<path opacity="0.4" d="M200.05 236.152C199.485 237.343 202.855 240.107 207.57 242.315C212.285 244.524 216.568 245.397 217.123 244.164C217.678 242.932 214.319 240.199 209.604 238.001C204.888 235.802 200.605 234.95 200.05 236.152Z" fill="white"/>
<path d="M201.17 236.573C201.139 236.652 201.139 236.74 201.17 236.819C202.043 236.357 205.402 237.261 209.131 239.018C212.86 240.774 215.716 242.777 215.911 243.753C215.988 243.718 216.05 243.656 216.085 243.579C216.466 242.767 213.445 240.497 209.326 238.597C205.207 236.696 201.55 235.772 201.17 236.573Z" fill="#2E5CFF"/>
<path opacity="0.4" d="M201.17 236.573C201.139 236.652 201.139 236.74 201.17 236.819C202.043 236.357 205.402 237.261 209.131 239.018C212.86 240.774 215.716 242.777 215.911 243.753C215.988 243.718 216.05 243.656 216.085 243.579C216.466 242.767 213.445 240.497 209.326 238.597C205.207 236.696 201.55 235.772 201.17 236.573Z" fill="#2E5CFF"/>
<path opacity="0.4" d="M201.16 236.819C201.355 237.847 204.241 239.798 207.929 241.555C211.617 243.312 215.027 244.226 215.901 243.753C215.705 242.777 212.819 240.774 209.121 239.018C205.423 237.261 202.033 236.357 201.16 236.819Z" fill="#2E5CFF"/>
<path d="M189.12 242.551C189.069 243.866 193.229 245.109 198.448 245.335C203.666 245.561 207.919 244.668 207.981 243.353C208.042 242.038 203.872 240.785 198.653 240.559C193.435 240.333 189.182 241.226 189.12 242.551Z" fill="#2E5CFF"/>
<path d="M189.21 240.124L189.108 242.516L207.962 243.316L208.063 240.925L189.21 240.124Z" fill="#2E5CFF"/>
<path d="M189.223 240.158C189.223 241.473 193.332 242.726 198.55 242.952C203.769 243.178 208.022 242.274 208.073 240.959C208.124 239.644 203.964 238.391 198.756 238.175C193.548 237.96 189.285 238.843 189.223 240.158Z" fill="#2E5CFF"/>
<path opacity="0.4" d="M189.223 240.158C189.223 241.473 193.332 242.726 198.55 242.952C203.769 243.178 208.022 242.274 208.073 240.959C208.124 239.644 203.964 238.391 198.756 238.175C193.548 237.96 189.285 238.843 189.223 240.158Z" fill="white"/>
<path d="M190.425 240.117C190.426 240.203 190.454 240.286 190.507 240.353C191.144 239.572 194.616 239.12 198.725 239.326C202.834 239.531 206.255 240.25 206.799 241.072C206.862 241.013 206.899 240.932 206.902 240.846C206.902 239.953 203.286 239.059 198.746 238.864C194.205 238.668 190.466 239.223 190.425 240.117Z" fill="#2E5CFF"/>
<path opacity="0.4" d="M190.425 240.117C190.426 240.203 190.454 240.286 190.507 240.353C191.144 239.572 194.616 239.12 198.725 239.326C202.834 239.531 206.255 240.25 206.799 241.072C206.862 241.013 206.899 240.932 206.902 240.846C206.902 239.953 203.286 239.059 198.746 238.864C194.205 238.668 190.466 239.223 190.425 240.117Z" fill="#2E5CFF"/>
<path opacity="0.4" d="M190.548 240.353C191.113 241.175 194.503 241.925 198.622 242.099C202.742 242.274 206.203 241.822 206.84 241.072C206.296 240.25 202.896 239.5 198.766 239.326C194.637 239.151 191.144 239.531 190.548 240.353Z" fill="#2E5CFF"/>
<path d="M66.559 31.7117L74.4175 42.3745L119.699 23.5758L163.839 39.2722L203.83 13.4164L206.696 17.2172L216.198 1.66463L194.903 0.000488281L198.17 4.30466L158.148 29.9242L114.665 14.495L66.559 31.7117Z" fill="#2E5CFF"/>
<g opacity="0.5">
<path d="M66.5587 31.7112L74.4172 42.374L119.698 23.5754L163.839 39.2717L203.83 13.4159L206.696 17.2167L216.198 1.66415L194.903 0L198.17 4.30417L158.148 29.9237L114.665 14.4945L66.5587 31.7112Z" fill="white"/>
</g>
</svg>
