<svg width="174" height="32" viewBox="0 0 174 32" fill="none" xmlns="http://www.w3.org/2000/svg">
<path d="M0 0H12.7059C15.126 0 16.9412 0.605042 18.2857 1.61345C19.7647 2.82353 20.5714 4.57143 20.5714 6.72269C20.5714 9.21008 19.563 10.7563 17.5462 11.6975V11.8319C20.2353 12.7059 21.7815 15.126 21.7815 18.0168C21.7815 20.7731 20.7059 22.9244 18.958 24.2689C17.479 25.3445 15.5966 25.8151 13.042 25.8151H0V0ZM11.4286 10.084C12.7731 10.084 13.7815 9.34454 13.7815 7.79832C13.7815 6.31933 12.7731 5.57983 11.3613 5.57983H6.9916V10.0168H11.4286V10.084ZM12.0336 20.1008C13.5798 20.1008 14.7227 19.1597 14.7227 17.479C14.7227 15.6639 13.5126 14.8571 12.0336 14.8571H7.05882V20.1681H12.0336V20.1008Z" fill="#9D9D9D"/>
<path d="M22.9244 0H29.5798V25.8824H22.9244V0Z" fill="#9D9D9D"/>
<path d="M30.9244 16.6722C30.9244 10.8235 34.6891 6.92432 40.5378 6.92432C46.3866 6.92432 50.084 10.8907 50.084 16.6722C50.084 22.521 46.3866 26.4201 40.5378 26.4201C34.6891 26.4201 30.9244 22.521 30.9244 16.6722ZM43.4286 16.6722C43.4286 13.4453 42.4202 11.4285 40.4034 11.4285C38.3866 11.4285 37.4454 13.4453 37.4454 16.6722C37.4454 19.8991 38.3866 21.9831 40.4034 21.9831C42.4202 21.9159 43.4286 19.8991 43.4286 16.6722Z" fill="#9D9D9D"/>
<path d="M50.8235 16.6722C50.8235 10.8235 54.5882 6.92432 60.437 6.92432C66.2857 6.92432 69.916 10.8235 69.916 16.6722C69.916 22.521 66.2185 26.4201 60.3698 26.4201C54.5883 26.4201 50.8235 22.521 50.8235 16.6722ZM63.3277 16.6722C63.3277 13.4453 62.3193 11.4285 60.3025 11.4285C58.2857 11.4285 57.3446 13.4453 57.3446 16.6722C57.3446 19.8991 58.2857 21.9831 60.3025 21.9831C62.3193 21.9159 63.3277 19.8991 63.3277 16.6722Z" fill="#9D9D9D"/>
<path d="M71.2605 7.39499H77.4454V10.1513H77.5798C78.7899 8.00003 80.4706 6.85718 83.1597 6.85718C85.5126 6.85718 87.2605 8.00004 88.1345 10.0168H88.2689C89.7479 7.59667 91.6975 6.85718 93.9832 6.85718C98.2857 6.85718 100.101 10.0168 100.101 14.2521V25.8152H93.6471V15.395C93.6471 13.5126 93.042 12.3026 91.4286 12.3026C89.8151 12.3026 89.0084 13.7815 89.0084 15.7984V25.8152H82.5546V15.395C82.5546 13.5126 81.9496 12.3026 80.3361 12.3026C78.7227 12.3026 77.916 13.7815 77.916 15.7984V25.8152H71.2605V7.39499Z" fill="#9D9D9D"/>
<path d="M108.235 23.395H108.168V25.8151H101.983V0H108.437V9.27731H108.571C109.781 7.66387 111.462 6.78992 113.815 6.78992C118.454 6.78992 121.143 10.958 121.143 16.5378C121.143 22.7899 118.252 26.4202 113.412 26.4202C111.395 26.4202 109.311 25.479 108.235 23.395ZM114.487 16.4706C114.487 13.5126 113.412 11.563 111.462 11.563C109.445 11.563 108.235 13.5126 108.235 16.4706C108.235 19.4286 109.513 21.3782 111.462 21.3782C113.412 21.3782 114.487 19.4958 114.487 16.4706Z" fill="#9D9D9D"/>
<path d="M121.882 16.6051C121.882 10.8236 125.714 6.85718 131.227 6.85718C133.983 6.85718 136.067 7.73113 137.681 9.27735C139.832 11.3614 140.773 14.5883 140.706 18.353H128.336C128.605 20.6387 129.681 21.8488 131.63 21.8488C132.773 21.8488 133.781 21.311 134.185 20.1009H140.437C139.361 24.3362 136.067 26.4202 131.429 26.4202C125.714 26.353 121.882 22.4538 121.882 16.6051ZM128.336 14.6555H134.252C134.118 12.437 132.908 11.2942 131.361 11.2942C129.546 11.2269 128.538 12.5042 128.336 14.6555Z" fill="#9D9D9D"/>
<path d="M148.034 10.5547H148.168C149.513 8.0001 151.261 6.9917 153.479 6.9917C154.017 6.9917 154.353 7.05893 154.555 7.19338V12.8404H154.42C150.588 12.1682 148.37 13.9833 148.37 18.1514V25.8825H141.849V7.39506H148.034V10.5547Z" fill="#9D9D9D"/>
<path d="M155.227 25.8822H161.479C161.748 26.689 162.555 27.4285 164.101 27.4285C166.185 27.4285 166.924 26.1511 166.924 24.2016V22.857H166.79C165.782 24.0671 164.37 24.9411 162.353 24.9411C158.387 24.9411 154.891 21.9831 154.891 16.2016C154.891 10.8906 157.714 6.78979 162.017 6.78979C164.504 6.78979 165.983 7.7982 166.992 9.34442H167.126V7.32761H173.311V23.3276C173.311 26.2856 172.303 28.5713 170.756 29.9158C169.143 31.3276 166.857 31.9327 164.235 31.9327C159.26 31.9999 155.832 29.9831 155.227 25.8822ZM167.193 15.9327C167.193 13.6469 166.118 11.7646 164.235 11.7646C162.42 11.7646 161.277 13.378 161.277 15.9327C161.277 18.42 162.42 20.1679 164.235 20.1679C166.05 20.1679 167.193 18.3528 167.193 15.9327Z" fill="#9D9D9D"/>
</svg>
