<svg width="44" height="32" viewBox="0 0 44 32" fill="none" xmlns="http://www.w3.org/2000/svg">
<g clip-path="url(#clip0_1_1343)">
<path d="M8.39124 27.2349C8.23514 26.4791 7.61486 26.2778 6.91961 26.2131C4.6757 26.0057 4.27827 27.6817 4.27827 28.3892C4.27827 29.599 4.63257 30.6003 6.83437 30.6003C7.24104 30.6003 8.36248 30.1823 8.36248 29.5035H11.5306C11.4023 31.5174 8.01434 32 6.53655 32C3.47519 32 0.853368 31.4301 0.98071 28.417C1.07108 26.2655 3.10446 24.7559 7.1517 24.8493C9.4069 24.9027 11.5748 25.6041 11.583 27.2349H8.39124ZM40.1232 27.2349C39.9681 26.4791 39.3468 26.2778 38.6526 26.2131C36.4087 26.0057 36.0113 27.6817 36.0113 28.3892C36.0113 29.599 36.3645 30.6003 38.5684 30.6003C38.9751 30.6003 40.0955 30.1823 40.0955 29.5035H43.2636C43.1353 31.5174 39.7484 32 38.2695 32C35.2082 32 32.5874 31.4301 32.7137 28.417C32.8041 26.2655 34.8385 24.7559 38.8857 24.8493C41.1409 24.9027 43.3078 25.6041 43.317 27.2349H40.1232ZM12.1499 24.9941H16.2629L19.772 29.9102H19.7997V24.9941H22.4359V31.8203H18.4955L14.8138 26.9032H14.7861V31.8203H12.1499V24.9941ZM23.2503 24.9941H28.2454C30.6464 24.9941 32.0585 25.6637 32.0585 26.6763C32.0585 27.274 31.467 28.0124 30.1494 28.2301V28.2496C31.736 28.3441 32.3214 29.3464 32.3214 29.9471C32.3214 31.1507 30.9453 31.8203 28.2598 31.8203H23.2503V24.9941ZM26.1412 27.6457H26.9699C28.2454 27.6457 28.9222 27.5461 28.9222 27.0172C28.9222 26.4493 28.3584 26.2614 27.2102 26.2614H26.1401L26.1412 27.6457ZM26.1412 30.3887H26.9699C28.5073 30.3887 29.0711 30.2275 29.0711 29.6986C29.0711 29.1307 28.3594 28.9418 27.2113 28.9418H26.1412V30.3887Z" fill="#9D9D9D"/>
<path d="M13.8382 8.99209L19.5758 22.1125L7.73912 14.0078C4.76916 12.0422 5.37096 8.67168 7.01717 7.1867C9.34426 5.2211 12.6346 5.903 13.8382 8.99209Z" fill="#9D9D9D"/>
<path d="M21.7016 5.90305L19.6159 20.5875L13.678 6.62602C12.3943 3.13539 15.2821 0.84836 17.2087 0.808308C19.4156 0.566973 22.1833 2.25221 21.7016 5.90305Z" fill="#9D9D9D"/>
<path d="M30.7296 6.58584L24.8318 20.5884L22.9463 7.94964C22.7851 6.02409 23.9897 5.98404 24.4313 5.62255C24.3512 5.34117 23.7494 5.34117 23.7494 5.34117H22.6259C22.5057 2.05079 25.0731 0.606892 27.1599 0.767097C29.4059 0.848227 31.9332 3.45567 30.7296 6.58584Z" fill="#9D9D9D"/>
<path d="M36.7486 13.9275L24.9129 22.0733L30.4893 9.11313C32.1746 5.0207 36.1068 5.82276 37.5106 7.38784C39.0346 8.91185 39.4762 12.002 36.7486 13.9275Z" fill="#9D9D9D"/>
<path d="M37.9912 23.5174H24.3101L35.4238 15.7731C38.1525 13.9677 41.0413 15.6129 41.8033 17.98C42.6064 20.6285 40.7999 23.5174 37.9912 23.5174Z" fill="#9D9D9D"/>
<path d="M2.56322 17.8197C3.60661 15.0911 6.49544 14.1278 9.06284 15.773L20.1776 23.5173H6.6957C3.88697 23.5173 1.68107 20.9489 2.56322 17.8197Z" fill="#9D9D9D"/>
</g>
<defs>
<clipPath id="clip0_1_1343">
<rect width="42.3504" height="32" fill="white" transform="translate(0.972107)"/>
</clipPath>
</defs>
</svg>
