<svg width="145" height="48" viewBox="0 0 145 48" fill="none" xmlns="http://www.w3.org/2000/svg">
<path d="M136.77 23.656L135.594 23.976C134.464 20.136 132.57 18.4768 129.897 18.4768C128.018 18.4768 126.697 19.7144 126.697 21.6768C126.697 23.5552 128.255 24.5568 132.441 26.2592C136.305 27.68 137.909 29.4208 137.909 32.4608C137.909 37.0888 134.273 39.9912 128.309 39.9912C125.429 39.9912 122.184 39.3496 120.35 38.6168L120.121 32.1864L121.252 31.9576C122.948 36.3576 125.116 38.0216 127.942 38.0216C130.386 38.0216 131.67 36.3256 131.67 34.5848C131.67 32.844 130.678 31.8352 126.859 30.4608C123.224 29.2608 120.734 27.7112 120.734 23.8472C120.734 20.044 124.078 16.8208 129.777 16.8208C132.465 16.8208 134.909 17.2792 136.513 18.0208L136.77 23.656ZM112.162 25.672C112.3 22.648 111.689 18.28 109.199 18.28C106.639 18.28 105.243 22.3584 105.197 25.856L112.162 25.672ZM109.81 16.8128C116.073 16.8128 119.09 21.3952 119.143 27.4128H105.06C105.014 32.7432 107.84 36.776 113.124 36.776C115.43 36.776 116.759 36.1344 118.164 35.1264L118.82 35.8592C117.262 37.9672 114.054 39.9832 109.777 39.9832C102.904 39.9832 98.1373 35.2632 98.1373 28.604C98.1213 22.5856 102.033 16.812 109.807 16.812M89.4949 27.964C89.3573 23.1984 87.6165 19.4256 84.2709 19.4256C83.4765 19.4256 82.8653 19.5632 81.9189 19.884L82.1941 38.1984C82.5301 38.336 83.3245 38.4272 83.8901 38.4272C87.1437 38.4272 89.4957 33.8296 89.4957 27.9632M96.4765 27.5968C96.4765 35.1272 91.7109 39.984 83.6605 39.984C80.7805 39.984 77.8101 39.5256 75.2285 38.9304C75.4573 35.9064 75.4573 17.1704 75.2285 13.6504C74.9997 11.8104 74.4797 10.9464 73.0685 10.7704L72.1213 10.6784V9.8384L82.0557 8C82.0101 9.5576 81.9181 13.6512 81.9181 18.464C83.6597 17.5936 85.2621 17.0896 87.4325 17.0896C92.6109 17.0896 96.4749 21.4896 96.4749 27.5984M71.1661 23.504C68.0957 21.488 64.7965 22.3584 64.1397 23.504C63.8493 27.024 63.9109 32.464 64.1853 35.2504C64.3229 37.0904 64.8413 37.8624 66.2629 38L68.1413 38.184V39.384H54.1037V38.184L55.1885 38C56.5485 37.8624 57.0285 37.0832 57.1133 35.2504C57.4493 32.272 57.5413 26.0248 57.1133 22.588C57.0213 20.6176 56.5485 19.884 55.1885 19.708L54.1037 19.5704V18.7464L64.1389 16.8216L64.0013 21.9536C66.3533 16.6384 71.0277 15.9968 73.5629 17.4176L71.1661 23.504ZM38.2341 28.4224C38.2341 34.028 39.7541 38.6104 42.7941 38.6104C46.0933 38.6104 47.0405 34.12 47.0405 28.4224C47.0405 22.7248 45.5813 18.28 42.4797 18.28C39.1653 18.28 38.2341 22.6336 38.2341 28.4224ZM54.1493 28.3304C54.1493 34.7608 49.9029 39.9848 42.3269 39.9848C34.8733 39.9848 31.1157 35.0208 31.1157 28.5128C31.1157 22.1288 35.3621 16.8128 42.9381 16.8128C50.3917 16.8128 54.1493 21.808 54.1493 28.3304ZM34.6445 17.28L33.0869 17.7384C31.7733 13.2328 29.4517 10.6664 25.4493 10.6664H20.2253C19.9349 13.66 19.7973 18.288 19.9349 23.2824L23.4173 23.0984C25.7693 23.0984 26.7613 21.4024 27.3277 18.9288H28.6413V29.3448H27.3277C26.7629 26.8248 25.7701 25.1048 23.4173 24.9768L19.9349 24.9312C19.9349 28.6432 19.9805 31.8112 20.2253 33.7448C20.4541 36.4944 21.2173 37.7464 23.2333 38.0064L25.1277 38.1904V39.3904H8.06693V38.1904L9.48773 38.0064C11.4581 37.7312 12.2677 36.4864 12.4957 33.7448C12.8773 29.2544 12.9693 19.6616 12.4957 14.3312C12.2669 11.4912 11.4573 10.3448 9.48773 10.1152L8.06693 9.8864V8.648H34.5997L34.6445 17.28Z" fill="#9D9D9D"/>
</svg>
