<svg width="155" height="24" viewBox="0 0 155 24" fill="none" xmlns="http://www.w3.org/2000/svg">
<g clip-path="url(#clip0_1_1356)">
<path fill-rule="evenodd" clip-rule="evenodd" d="M22.0458 18.5133C23.5212 16.5212 24.3162 14.107 24.3129 11.6281C24.3129 5.21799 19.0764 0 12.6494 0C6.22241 0 0.98671 5.22107 0.98671 11.6281C0.98671 18.035 6.21625 23.2561 12.6494 23.2561C15.0835 23.2602 17.4572 22.4986 19.4345 21.0791L22.3608 23.9938L24.9567 21.4079L22.0489 18.5071L22.0458 18.5133ZM19.4075 15.8827L15.0952 11.5849L12.5023 14.1747L16.7901 18.4486C15.5412 19.2058 14.1083 19.6053 12.6479 19.6037C8.23768 19.6037 4.65378 16.0298 4.65378 11.6327C4.65378 7.23558 8.24076 3.66091 12.651 3.66091C17.0611 3.66091 20.642 7.23866 20.642 11.6319C20.6437 13.1371 20.2163 14.6117 19.4099 15.8827H19.4075Z" fill="#9D9D9D"/>
<path fill-rule="evenodd" clip-rule="evenodd" d="M129.573 0.575928V4.27303H122.637V22.767H118.881V4.27303H111.946V0.575928H129.573Z" fill="#9D9D9D"/>
<path fill-rule="evenodd" clip-rule="evenodd" d="M71.5894 0.575928H67.0798L58.5051 22.767H62.4417L64.0481 18.4439H74.6234L76.2283 22.767H80.1664L71.5894 0.575928ZM65.4781 14.9847L69.3384 4.96764L73.1888 14.9847H65.4781Z" fill="#9D9D9D"/>
<path fill-rule="evenodd" clip-rule="evenodd" d="M155 4.27318L142.563 19.02H155V22.7672H137.664V18.8244L150.146 4.27318H138.53V0.613037H155V4.27318Z" fill="#9D9D9D"/>
<path fill-rule="evenodd" clip-rule="evenodd" d="M51.2334 0.575928V14.6143C51.2334 19.3741 47.3553 23.2445 42.584 23.2445C37.8126 23.2445 33.9307 19.3726 33.9307 14.6143V0.575928H37.684V14.6143C37.6016 17.355 39.8364 19.5836 42.5855 19.5836C45.3347 19.5836 47.5632 17.355 47.5093 14.6143V0.575928H51.2334Z" fill="#9D9D9D"/>
<path fill-rule="evenodd" clip-rule="evenodd" d="M99.7416 15.2512C101.029 14.6171 102.114 13.6357 102.873 12.4179C103.633 11.2001 104.037 9.79428 104.04 8.35903C104.04 4.29152 100.678 0.658325 96.4934 0.575928H88.2537V22.7663H92.0085V16.0836H95.4122L103.156 23.9075L105.767 21.3355L99.7423 15.2519L99.7416 15.2512ZM96.2177 12.4219H92.0085V4.29614H96.2185C98.5079 4.29614 100.371 6.11812 100.371 8.35979C100.371 10.6015 98.5079 12.4219 96.2185 12.4219H96.2177Z" fill="#9D9D9D"/>
</g>
<defs>
<clipPath id="clip0_1_1356">
<rect width="154.014" height="24" fill="white" transform="translate(0.986084)"/>
</clipPath>
</defs>
</svg>
