<svg width="105" height="48" viewBox="0 0 105 48" fill="none" xmlns="http://www.w3.org/2000/svg">
<g clip-path="url(#clip0_1_1354)">
<path d="M91.2305 22.7135C91.4417 19.3343 92.3633 17.7599 94.0913 17.7599C95.8001 17.7599 96.6833 19.3727 96.7985 22.7135H91.2305ZM103.883 24.7295C103.883 20.9663 103.058 17.9711 101.445 15.8783C99.7937 13.7471 97.3361 12.6527 94.2065 12.6527C87.7937 12.6527 83.8001 17.3951 83.8001 24.9983C83.8001 29.2607 84.8561 32.4479 86.9681 34.4831C88.8497 36.3071 91.5569 37.2287 95.0513 37.2287C98.2769 37.2287 101.253 36.4607 103.135 35.2127L102.309 30.0479C100.447 31.0463 98.2961 31.6031 95.8577 31.6031C94.3985 31.6031 93.4001 31.2959 92.6705 30.6623C91.8833 29.9903 91.4225 28.8959 91.2689 27.3407H103.768C103.826 26.9759 103.883 25.2671 103.883 24.7295ZM73.7009 29.8367C73.0865 30.9887 72.1457 31.6031 71.0513 31.6031C70.2833 31.6031 69.6305 31.4495 69.0161 31.1423V19.8911C70.3025 18.5471 71.4545 18.3935 71.8769 18.3935C73.7969 18.3935 74.7377 20.4671 74.7377 24.4991C74.7377 26.8223 74.4113 28.6271 73.7009 29.8367ZM79.9793 15.2447C78.6353 13.5167 76.7921 12.6527 74.4113 12.6527C72.2225 12.6527 70.3025 13.5743 68.5169 15.4751L68.1137 13.0943H61.4897V45.5231L69.0353 44.2751V36.6719C70.1873 37.0367 71.3777 37.2287 72.4337 37.2287C74.3153 37.2287 77.0609 36.7487 79.1921 34.4255C81.2273 32.1983 82.2641 28.7615 82.2641 24.2303C82.2449 20.2175 81.4961 17.1839 79.9793 15.2447ZM50.9297 13.1135H58.4945V36.7871H50.9297V13.1135ZM54.7313 10.7711C56.9201 10.7711 58.6865 8.98554 58.6865 6.77754C58.6865 4.55034 56.9201 2.78394 54.7313 2.78394C52.5041 2.78394 50.7377 4.55034 50.7377 6.77754C50.7569 8.96634 52.5233 10.7711 54.7313 10.7711ZM47.6849 12.7871C45.5537 12.7871 43.8449 13.9007 43.1921 15.9167L42.7313 13.1135H36.1265V36.7871H43.6721V21.4271C44.6129 20.2751 45.9569 19.8527 47.7809 19.8527C48.1841 19.8527 48.6065 19.8527 49.1249 19.9487V12.9599C48.5873 12.8447 48.1265 12.7871 47.6849 12.7871ZM33.2081 18.7007L34.1297 13.0943H29.3105V6.31674L22.8401 7.39194L21.8993 13.1135L19.6145 13.4783L18.7697 18.7007H21.8993V29.6831C21.8993 32.5439 22.6289 34.5215 24.1265 35.7311C25.3745 36.7295 27.1601 37.2287 29.6945 37.2287C31.6337 37.2287 32.8241 36.9023 33.6497 36.6719V30.7391C33.1889 30.8543 32.1521 31.0655 31.4609 31.0655C29.9633 31.0655 29.3297 30.2975 29.3297 28.5695V18.7007H33.2081ZM11.6081 22.0223C9.3809 21.1967 8.1713 20.5631 8.1713 19.5647C8.1713 18.7199 8.8625 18.2207 10.1105 18.2207C12.3953 18.2207 14.7377 19.1039 16.3505 19.8911L17.2721 14.2655C15.9857 13.6511 13.3745 12.6527 9.7649 12.6527C7.2113 12.6527 5.0801 13.3247 3.5633 14.5727C1.9697 15.8783 1.1441 17.7599 1.1441 20.0447C1.1441 24.1727 3.6593 25.9391 7.7681 27.4367C10.4177 28.3775 11.3009 29.0495 11.3009 30.0863C11.3009 31.0847 10.4561 31.6607 8.9009 31.6607C6.9809 31.6607 3.8129 30.7199 1.7585 29.5103L0.836899 35.1935C2.6033 36.1919 5.8865 37.2287 9.2849 37.2287C11.9921 37.2287 14.2385 36.5951 15.7553 35.3663C17.4641 34.0223 18.3473 32.0447 18.3473 29.4911C18.3473 25.2671 15.7745 23.5007 11.6081 22.0223Z" fill="#9D9D9D"/>
</g>
<defs>
<clipPath id="clip0_1_1354">
<rect width="103.68" height="48" fill="white" transform="translate(0.644897)"/>
</clipPath>
</defs>
</svg>
